<svg xmlns="http://www.w3.org/2000/svg" viewBox="0 0 1280 720" width="1280" height="720" xmlns:c2pa="http://c2pa.org/manifest"><metadata><c2pa:manifest>AAAWgmp1bWIAAAAeanVtZGMycGEAEQAQgAAAqgA4m3EDYzJwYQAAABZcanVtYgAAAEdqdW1kYzJtYQARABCAAACqADibcQN1cm46YzJwYTo1ZDE3ZDM2NC05ODdjLTQwZTItOTU2Yy02NDcxNjQ4MmRiZDcAAAADl2p1bWIAAAApanVtZGMyYXMAEQAQgAAAqgA4m3EDYzJwYS5hc3NlcnRpb25zAAAAALxqdW1iAAAARGp1bWRjYm9yABEAEIAAAKoAOJtxE2MycGEuaW5ncmVkaWVudC52MwAAAAAYYzJzaO4XyDhsmRHz7ilk5JlG3mMAAABwY2JvcqNpZGM6Zm9ybWF0bWltYWdlL3N2Zyt4bWxqaW5zdGFuY2VJRHgseG1wOmlpZDpiODE0OTI4My1jMzI2LTRkMGMtYmJjNy1jNGZmZmQ3ZmRmNGJscmVsYXRpb25zaGlwaHBhcmVudE9mAAAB4mp1bWIAAABBanVtZGNib3IAEQAQgAAAqgA4m3ETYzJwYS5hY3Rpb25zLnYyAAAAABhjMnNokb64QMpc1OYwEhN6t3/QKgAAAZljYm9yomdhY3Rpb25zgqJmYWN0aW9ua2MycGEub3BlbmVkanBhcmFtZXRlcnOha2luZ3JlZGllbnRzgaJjdXJseC1zZWxmI2p1bWJmPWMycGEuYXNzZXJ0aW9ucy9jMnBhLmluZ3JlZGllbnQudjNkaGFzaFggqor5NL92B9IcjKQVKE2PqzTNOIT0Spsl0e1EJatdwgmkZmFjdGlvbngdY29tLmFudGhyb3BpYy5jbGF1ZGUucHJvdmlkZWRqcGFyYW1ldGVyc6F4H2NvbS5hbnRocm9waWMub3JpZ2luLWNvbmZpZGVuY2VndW5rbm93bmtkZXNjcmlwdGlvbnhmQ2xhdWRlIHByb3ZpZGVkIHRoaXMgZmlsZSBhdCB0aGUgcmVxdWVzdCBvZiBhIHVzZXIgYW5kIG1heSBoYXZlIGNyZWF0ZWQgb3IgbW9kaWZpZWQgdGhlIGZpbGUgY29udGVudHMubXNvZnR3YXJlQWdlbnShZG5hbWVmQ2xhdWRlcmFsbEFjdGlvbnNJbmNsdWRlZPUAAADIanVtYgAAAEBqdW1kY2JvcgARABCAAACqADibcRNjMnBhLmhhc2guZGF0YQAAAAAYYzJzaJ+wOXG+ohesDeEFRTHxT/EAAACAY2JvcqVjYWxnZnNoYTI1NmNwYWRNAAAAAAAAAAAAAAAAAGRoYXNoWCAHXl06McQhG5Up5HX2M3YKHFIWXi1gvjIfQ2ZW7u6OWWRuYW1lbmp1bWJmIG1hbmlmZXN0amV4Y2x1c2lvbnOBomVzdGFydBiYZmxlbmd0aBkeBAAAAj5qdW1iAAAAJ2p1bWRjMmNsABEAEIAAAKoAOJtxA2MycGEuY2xhaW0udjIAAAACD2Nib3KlY2FsZ2ZzaGEyNTZpc2lnbmF0dXJleE1zZWxmI2p1bWJmPS9jMnBhL3VybjpjMnBhOjVkMTdkMzY0LTk4N2MtNDBlMi05NTZjLTY0NzE2NDgyZGJkNy9jMnBhLnNpZ25hdHVyZWppbnN0YW5jZUlEeCx4bXA6aWlkOmEzZTBmM2Q3LTI3NWUtNGJjZC1iNDk5LTRiNWYwYWJhMWRlMHJjcmVhdGVkX2Fzc2VydGlvbnODomN1cmx4LXNlbGYjanVtYmY9YzJwYS5hc3NlcnRpb25zL2MycGEuaW5ncmVkaWVudC52M2RoYXNoWCCqivk0v3YH0hyMpBUoTY+rNM04hPRKmyXR7UQlq13CCaJjdXJseCpzZWxmI2p1bWJmPWMycGEuYXNzZXJ0aW9ucy9jMnBhLmFjdGlvbnMudjJkaGFzaFggdr1b1R/j7Ci/pVf3M9EFSr6vyfVPJ5U0I2ter9uO/+2iY3VybHgpc2VsZiNqdW1iZj1jMnBhLmFzc2VydGlvbnMvYzJwYS5oYXNoLmRhdGFkaGFzaFggCats8tIzkwA0aG2yXmbFZNDPJHiFrgjoIPKUEsEcm350Y2xhaW1fZ2VuZXJhdG9yX2luZm+jZG5hbWVvQW50aHJvcGljIEZpbGVzZ3ZlcnNpb25lMS4wLjBrc3BlY1ZlcnNpb25lMi40LjAAABA4anVtYgAAAChqdW1kYzJjcwARABCAAACqADibcQNjMnBhLnNpZ25hdHVyZQAAABAIY2JvctKEWQISogEmGCFZAgowggIGMIIBjaADAgECAhRA5aAK7sI50L64g/oGQgU9Z1UTADAKBggqhkjOPQQDAzBJMRcwFQYDVQQKEw5BbnRocm9waWMsIFBCQzEuMCwGA1UEAxMlQW50aHJvcGljIENvbnRlbnQgQ3JlZGVudGlhbHMgUm9vdCBDQTAeFw0yNjA4MDcxODQzNTZaFw0yODA4MDYxOTQzNTZaMEQxFzAVBgNVBAoTDkFudGhyb3BpYywgUEJDMSkwJwYDVQQDEyBBbnRocm9waWMgQ2xhdWRlIENvbnRlbnQgU2lnbmluZzBZMBMGByqGSM49AgEGCCqGSM49AwEHA0IABJh6CmvLUBgFFNU0vUKlOVtE6djd17L5SuwX0LemFisBM3dkd/3cyjxFA3Qo5S46fX0/ihY0VZ7mfb9KF703t5OjWDBWMA4GA1UdDwEB/wQEAwIHgDAVBgNVHSUEDjAMBgorBgEEAYPoXgIBMAwGA1UdEwEB/wQCMAAwHwYDVR0jBBgwFoAUzlHiBIFOZFsj+OPEz5o+nMHXXMIwCgYIKoZIzj0EAwMDZwAwZAIwMXMdFJ4BetLLVY7ORuE9noqbbAZOZn/aArXyTwFAZfKrPzxF2vPoJNf1+UCdg1XGAjBwX1zd9WGqYkqmL5SFqw1QySjr1zJfpJM9+1rdDwSPLMOPOjKuiXjoU/pUUeG9RwmhY3BhZFkNngAAAAAAAAAAAAAAAAAAAAAAAAAAAAAAAAAAAAAAAAAAAAAAAAAAAAAAAAAAAAAAAAAAAAAAAAAAAAAAAAAAAAAAAAAAAAAAAAAAAAAAAAAAAAAAAAAAAAAAAAAAAAAAAAAAAAAAAAAAAAAAAAAAAAAAAAAAAAAAAAAAAAAAAAAAAAAAAAAAAAAAAAAAAAAAAAAAAAAAAAAAAAAAAAAAAAAAAAAAAAAAAAAAAAAAAAAAAAAAAAAAAAAAAAAAAAAAAAAAAAAAAAAAAAAAAAAAAAAAAAAAAAAAAAAAAAAAAAAAAAAAAAAAAAAAAAAAAAAAAAAAAAAAAAAAAAAAAAAAAAAAAAAAAAAAAAAAAAAAAAAAAAAAAAAAAAAAAAAAAAAAAAAAAAAAAAAAAAAAAAAAAAAAAAAAAAAAAAAAAAAAAAAAAAAAAAAAAAAAAAAAAAAAAAAAAAAAAAAAAAAAAAAAAAAAAAAAAAAAAAAAAAAAAAAAAAAAAAAAAAAAAAAAAAAAAAAAAAAAAAAAAAAAAAAAAAAAAAAAAAAAAAAAAAAAAAAAAAAAAAAAAAAAAAAAAAAAAAAAAAAAAAAAAAAAAAAAAAAAAAAAAAAAAAAAAAAAAAAAAAAAAAAAAAAAAAAAAAAAAAAAAAAAAAAAAAAAAAAAAAAAAAAAAAAAAAAAAAAAAAAAAAAAAAAAAAAAAAAAAAAAAAAAAAAAAAAAAAAAAAAAAAAAAAAAAAAAAAAAAAAAAAAAAAAAAAAAAAAAAAAAAAAAAAAAAAAAAAAAAAAAAAAAAAAAAAAAAAAAAAAAAAAAAAAAAAAAAAAAAAAAAAAAAAAAAAAAAAAAAAAAAAAAAAAAAAAAAAAAAAAAAAAAAAAAAAAAAAAAAAAAAAAAAAAAAAAAAAAAAAAAAAAAAAAAAAAAAAAAAAAAAAAAAAAAAAAAAAAAAAAAAAAAAAAAAAAAAAAAAAAAAAAAAAAAAAAAAAAAAAAAAAAAAAAAAAAAAAAAAAAAAAAAAAAAAAAAAAAAAAAAAAAAAAAAAAAAAAAAAAAAAAAAAAAAAAAAAAAAAAAAAAAAAAAAAAAAAAAAAAAAAAAAAAAAAAAAAAAAAAAAAAAAAAAAAAAAAAAAAAAAAAAAAAAAAAAAAAAAAAAAAAAAAAAAAAAAAAAAAAAAAAAAAAAAAAAAAAAAAAAAAAAAAAAAAAAAAAAAAAAAAAAAAAAAAAAAAAAAAAAAAAAAAAAAAAAAAAAAAAAAAAAAAAAAAAAAAAAAAAAAAAAAAAAAAAAAAAAAAAAAAAAAAAAAAAAAAAAAAAAAAAAAAAAAAAAAAAAAAAAAAAAAAAAAAAAAAAAAAAAAAAAAAAAAAAAAAAAAAAAAAAAAAAAAAAAAAAAAAAAAAAAAAAAAAAAAAAAAAAAAAAAAAAAAAAAAAAAAAAAAAAAAAAAAAAAAAAAAAAAAAAAAAAAAAAAAAAAAAAAAAAAAAAAAAAAAAAAAAAAAAAAAAAAAAAAAAAAAAAAAAAAAAAAAAAAAAAAAAAAAAAAAAAAAAAAAAAAAAAAAAAAAAAAAAAAAAAAAAAAAAAAAAAAAAAAAAAAAAAAAAAAAAAAAAAAAAAAAAAAAAAAAAAAAAAAAAAAAAAAAAAAAAAAAAAAAAAAAAAAAAAAAAAAAAAAAAAAAAAAAAAAAAAAAAAAAAAAAAAAAAAAAAAAAAAAAAAAAAAAAAAAAAAAAAAAAAAAAAAAAAAAAAAAAAAAAAAAAAAAAAAAAAAAAAAAAAAAAAAAAAAAAAAAAAAAAAAAAAAAAAAAAAAAAAAAAAAAAAAAAAAAAAAAAAAAAAAAAAAAAAAAAAAAAAAAAAAAAAAAAAAAAAAAAAAAAAAAAAAAAAAAAAAAAAAAAAAAAAAAAAAAAAAAAAAAAAAAAAAAAAAAAAAAAAAAAAAAAAAAAAAAAAAAAAAAAAAAAAAAAAAAAAAAAAAAAAAAAAAAAAAAAAAAAAAAAAAAAAAAAAAAAAAAAAAAAAAAAAAAAAAAAAAAAAAAAAAAAAAAAAAAAAAAAAAAAAAAAAAAAAAAAAAAAAAAAAAAAAAAAAAAAAAAAAAAAAAAAAAAAAAAAAAAAAAAAAAAAAAAAAAAAAAAAAAAAAAAAAAAAAAAAAAAAAAAAAAAAAAAAAAAAAAAAAAAAAAAAAAAAAAAAAAAAAAAAAAAAAAAAAAAAAAAAAAAAAAAAAAAAAAAAAAAAAAAAAAAAAAAAAAAAAAAAAAAAAAAAAAAAAAAAAAAAAAAAAAAAAAAAAAAAAAAAAAAAAAAAAAAAAAAAAAAAAAAAAAAAAAAAAAAAAAAAAAAAAAAAAAAAAAAAAAAAAAAAAAAAAAAAAAAAAAAAAAAAAAAAAAAAAAAAAAAAAAAAAAAAAAAAAAAAAAAAAAAAAAAAAAAAAAAAAAAAAAAAAAAAAAAAAAAAAAAAAAAAAAAAAAAAAAAAAAAAAAAAAAAAAAAAAAAAAAAAAAAAAAAAAAAAAAAAAAAAAAAAAAAAAAAAAAAAAAAAAAAAAAAAAAAAAAAAAAAAAAAAAAAAAAAAAAAAAAAAAAAAAAAAAAAAAAAAAAAAAAAAAAAAAAAAAAAAAAAAAAAAAAAAAAAAAAAAAAAAAAAAAAAAAAAAAAAAAAAAAAAAAAAAAAAAAAAAAAAAAAAAAAAAAAAAAAAAAAAAAAAAAAAAAAAAAAAAAAAAAAAAAAAAAAAAAAAAAAAAAAAAAAAAAAAAAAAAAAAAAAAAAAAAAAAAAAAAAAAAAAAAAAAAAAAAAAAAAAAAAAAAAAAAAAAAAAAAAAAAAAAAAAAAAAAAAAAAAAAAAAAAAAAAAAAAAAAAAAAAAAAAAAAAAAAAAAAAAAAAAAAAAAAAAAAAAAAAAAAAAAAAAAAAAAAAAAAAAAAAAAAAAAAAAAAAAAAAAAAAAAAAAAAAAAAAAAAAAAAAAAAAAAAAAAAAAAAAAAAAAAAAAAAAAAAAAAAAAAAAAAAAAAAAAAAAAAAAAAAAAAAAAAAAAAAAAAAAAAAAAAAAAAAAAAAAAAAAAAAAAAAAAAAAAAAAAAAAAAAAAAAAAAAAAAAAAAAAAAAAAAAAAAAAAAAAAAAAAAAAAAAAAAAAAAAAAAAAAAAAAAAAAAAAAAAAAAAAAAAAAAAAAAAAAAAAAAAAAAAAAAAAAAAAAAAAAAAAAAAAAAAAAAAAAAAAAAAAAAAAAAAAAAAAAAAAAAAAAAAAAAAAAAAAAAAAAAAAAAAAAAAAAAAAAAAAAAAAAAAAAAAAAAAAAAAAAAAAAAAAAAAAAAAAAAAAAAAAAAAAAAAAAAAAAAAAAAAAAAAAAAAAAAAAAAAAAAAAAAAAAAAAAAAAAAAAAAAAAAAAAAAAAAAAAAAAAAAAAAAAAAAAAAAAAAAAAAAAAAAAAAAAAAAAAAAAAAAAAAAAAAAAAAAAAAAAAAAAAAAAAAAAAAAAAAAAAAAAAAAAAAAAAAAAAAAAAAAAAAAAAAAAAAAAAAAAAAAAAAAAAAAAAAAAAAAAAAAAAAAAAAAAAAAAAAAAAAAAAAAAAAAAAAAAAAAAAAAAAAAAAAAAAAAAAAAAAAAAAAAAAAAAAAAAAAAAAAAAAAAAAAAAAAAAAAAAAAAAAAAAAAAAAAAAAAAAAAAAAAAAAAAAAAAAAAAAAAAAAAAAAAAAAAAAAAAAAAAAAAAAAAAAAAAAAAAAAAAAAAAAAAAAAAAAAAAAAAAAAAAAAAAAAAAAAAAAAAAAAAAAAAAAAAAAAAAAAAAAAAAAAAAAAAAAAAAAAAAAAAAAAAAAAAAAAAAAAAAAAAAAAAAAAAAAAAAAAAAAAAAAAAAAAAAAAAAAAAAAAAAAAAAAAAAAAAAAAAAAAAAAAAAAAAAAAAAAAAAAAAAAAAAAAAAAAAAAAAAAAAAAAAAAAAAAAAAAAAAAAAAAAAAAAAAAAAAAAAAAAAAAAAAAAAAAAAAAAAAAAAAAAAAAAAAAAAAAAAAAAAAAAAAAAAAAAAAAAAAAAAAAAAAAAAAAAAAAAAAAAAAAAAAAAAAAAAAAAAAAAAAAAAAAAAAAAAAAAAAAAAAAAAAAAAAAAAAAAAAAAAAAAAAAAAAAAAAAAAAAAAAAAAAAAAAAAAAAAAAAAAAAAAAAAAAAAAAAAAAAAAAAAAAAAAAAAAAAAAAAAAAAAAAAAAAAAAAAAAAAAAAAAAAAAAAAAAAAAAAAAAAAAAAAAAAAAAAAAAAAAAAAAAAAAAAAAAAAAAAAAAAAAAAAAAAAAAAAAAAAAAAAAAAAAAAAAAAAAAAAAAAAAAAAAAAAAAAAAAAAAAAAAAAAAAAAAAAAAAAAAAAAAAAAAAAAAAAAAAAAAAAAAAAAAAAAAAAAAAAAAAAAAAAAAAAAAAAAAAAAAAAAAAAAAAAAAAAAAAAAAAAAAAAAAAAAAAAAAAAAAAAAAAAAAAAAAAAAAAAAAAAAAAAAAAAAAAAAAAAAAAAAAAAAAAAAAAAAAAAAAAAAAAAAAAAAAAAAAAAAAAAAAAAAAAAAAAAAAAAAAAAAAAAAAAAAAAAAAAAAAAAAAAAAAAAAAAAAAAAAAAAAAAAAAAAAAAAAAAAAAAAAAAAAAAAAAAAAAAAAAAAAAAAAAAAAAAAAAAAAAAAAAAAAAAAAAAAAAAAAAAAAAAAAAAAAAAAAAAAAAPZYQKUQT6O1Vo6N/ZLl4n/rbtUJ7DEnHMJSp8h+VuuyHwkYvYmvMJBmTeqsJfQTAwlRhOQbhieHuz+LSjCVMFpMiMs=</c2pa:manifest></metadata>
<defs><filter id="r" x="-3%" y="-3%" width="106%" height="106%"><feTurbulence type="fractalNoise" baseFrequency="0.012" numOctaves="2" seed="81"></feTurbulence><feDisplacementMap in="SourceGraphic" scale="5" xChannelSelector="R" yChannelSelector="G"></feDisplacementMap></filter><pattern id="leo" width="44" height="44" patternUnits="userSpaceOnUse"><rect width="44" height="44" fill="#E0A23A"></rect><g fill="none" stroke="#2A2623" stroke-width="4" stroke-linecap="round"><path d="M6 8 C4 14 8 18 12 18 M16 6 C20 8 22 12 20 16 M28 28 C26 34 30 38 34 38 M38 26 C42 28 44 32 42 36"></path></g></pattern></defs>
<g filter="url(#r)" stroke="#1E2240" stroke-width="3" stroke-linejoin="round" stroke-linecap="round">
<rect x="-10" y="-10" width="1300" height="500" fill="#F3E6C8" stroke="none"></rect><circle cx="120" cy="110" r="60" fill="#E0A23A"></circle>
<path d="M-10 470 H1290 V730 H-10 Z" fill="#B87F24"></path><path d="M-10 520 L1290 500 V620 L-10 650 Z" fill="#4A3F37"></path><path d="M20 586 L1260 560" fill="none" stroke="#FBF6EA" stroke-width="5" stroke-dasharray="40 26"></path>
<path d="M60 360 C40 360 30 392 60 404 L700 404 C730 404 740 380 720 360 Z" fill="#FBF6EA"></path>
<path d="M60 404 C100 420 680 420 700 404" fill="#E4D6B6"></path>
<path d="M600 362 L700 240 H760 L720 362 Z" fill="url(#leo)"></path><path d="M640 404 L760 420 L770 400 L700 392 Z" fill="url(#leo)"></path>
<path d="M300 400 L420 470 H470 L420 400 Z" fill="#FBF6EA"></path>
<path d="M60 380 H700" fill="none" stroke="#1F8A8A" stroke-width="8"></path>
<path d="M66 366 C70 358 84 356 92 360 L100 372 H72 Z" fill="#1E2240"></path>
<circle cx="380" cy="372" r="7" fill="#9ED2D2"></circle><circle cx="416" cy="372" r="7" fill="#9ED2D2"></circle><circle cx="452" cy="372" r="7" fill="#9ED2D2"></circle><circle cx="488" cy="372" r="7" fill="#9ED2D2"></circle><circle cx="524" cy="372" r="7" fill="#9ED2D2"></circle><circle cx="560" cy="372" r="7" fill="#9ED2D2"></circle><circle cx="596" cy="372" r="7" fill="#9ED2D2"></circle><circle cx="632" cy="372" r="7" fill="#9ED2D2"></circle>
<rect x="200" y="296" width="96" height="104" fill="#2A2623"></rect>
<path d="M150 404 V430 M560 404 V430" fill="none" stroke-width="6"></path><circle cx="150" cy="440" r="14" fill="#2A2623"></circle><circle cx="560" cy="440" r="14" fill="#2A2623"></circle>
<path d="M780 380 H880 M800 410 H920 M770 440 H860" fill="none" stroke-width="5"></path>
</g>
<svg x="200" y="296" width="96" height="104" viewBox="0 0 96 104"><rect width="96" height="104" fill="#2A2623"></rect><svg x="-42" y="-6" width="180" height="180" viewBox="0 0 400 400" preserveAspectRatio="xMidYMid meet" overflow="visible">
<defs><filter id="e12_r" x="-5%" y="-5%" width="110%" height="110%"><feTurbulence type="fractalNoise" baseFrequency="0.03" numOctaves="2" seed="9"></feTurbulence><feDisplacementMap in="SourceGraphic" scale="4" xChannelSelector="R" yChannelSelector="G"></feDisplacementMap></filter><pattern id="e12_leo" width="44" height="44" patternUnits="userSpaceOnUse"><rect width="44" height="44" fill="#E0A23A"></rect><g fill="none" stroke="#2A2623" stroke-width="4" stroke-linecap="round"><path d="M6 8 C4 14 8 18 12 18 M16 6 C20 8 22 12 20 16"></path><path d="M28 28 C26 34 30 38 34 38 M38 26 C42 28 44 32 42 36"></path></g><circle cx="13" cy="12" r="3" fill="#B87F24"></circle><circle cx="35" cy="32" r="3" fill="#B87F24"></circle></pattern></defs>
<g filter="url(#e12_r)" stroke="#1E2240" stroke-width="3" stroke-linejoin="round" stroke-linecap="round">
<path d="M0 400 C8 320 80 280 200 276 C320 280 392 320 400 400 Z" fill="url(#e12_leo)"></path>
<path d="M160 280 L200 360 L240 280 Z" fill="#8C8078"></path><path d="M150 280 L200 362 L130 330 L120 300 Z M250 280 L200 362 L270 330 L280 300 Z" fill="url(#e12_leo)"></path>
<path d="M150 286 C160 350 240 350 250 286" fill="none" stroke-width="11"></path><path d="M150 286 C160 350 240 350 250 286" fill="none" stroke="#E0A23A" stroke-width="6"></path>
<circle cx="140" cy="86" r="18" fill="#8C8078"></circle><circle cx="140" cy="86" r="8" fill="#D98A6A" stroke="none"></circle><circle cx="264" cy="84" r="18" fill="#8C8078"></circle><circle cx="264" cy="84" r="8" fill="#D98A6A" stroke="none"></circle>
<path d="M112 170 C104 110 150 76 204 76 C260 76 302 110 294 170 L300 280 L104 280 Z" fill="#8C8078"></path>
<path d="M88 226 C82 190 118 176 200 176 C284 176 320 190 312 228 C306 274 260 304 200 304 C140 304 94 274 88 226 Z" fill="#8C8078"></path>
<path d="M290 190 C318 206 312 260 280 286 C300 256 304 222 290 190 Z" fill="#6E625A" stroke="none"></path>
<ellipse cx="166" cy="200" rx="12" ry="8" fill="#2A2623"></ellipse><ellipse cx="236" cy="200" rx="12" ry="8" fill="#2A2623"></ellipse>
<circle cx="126" cy="230" r="14" fill="#D98A6A" stroke="none" opacity="0.6"></circle><circle cx="276" cy="226" r="13" fill="#D98A6A" stroke="none" opacity="0.6"></circle>
<path d="M130 130 L186 132" fill="none" stroke-width="7"></path><path d="M218 126 Q246 110 274 120" fill="none" stroke-width="7"></path>
<path d="M128 138 H196 C198 162 186 176 164 176 C142 176 128 162 128 138 Z" fill="#2A2623"></path><path d="M208 138 H276 C278 162 264 176 242 176 C220 176 206 162 208 138 Z" fill="#2A2623"></path><path d="M196 144 H208 M128 140 L108 132 M276 140 L296 132" fill="none" stroke="#E0A23A" stroke-width="4"></path><path d="M140 148 L156 144 M220 148 L236 144" fill="none" stroke="#FBF6EA" stroke-width="3"></path>
<path d="M112 250 Q200 290 292 244 Q200 270 112 250 Z" fill="#5A1820"></path><path d="M120 252 Q200 272 284 248 L282 256 Q200 280 122 260 Z" fill="#FBF6EA" stroke-width="2"></path><rect x="226" y="256" width="12" height="10" fill="#E0A23A" stroke-width="2"></rect>
<path d="M40 400 C40 370 60 350 90 350 C112 352 118 370 106 384 C118 388 118 400 110 400 Z" fill="#8C8078"></path><path d="M70 356 V372 M86 354 V370" fill="none" stroke="#E0A23A" stroke-width="7"></path><path d="M62 360 H78 M78 358 H94" fill="none" stroke="#E0A23A" stroke-width="5"></path>
</g>
</svg></svg>
<g filter="url(#r)" stroke="#1E2240" stroke-width="3" stroke-linejoin="round" stroke-linecap="round"><rect x="200" y="296" width="96" height="104" fill="none"></rect><path d="M200 296 C190 300 186 340 196 400" fill="none" stroke="#2A2623" stroke-width="6"></path>
<path d="M304 300 C300 276 312 252 330 250 C344 252 344 268 336 276 C344 282 340 296 330 300 Z" fill="#8C8078"></path><path d="M314 266 V284 M326 262 V280" fill="none" stroke="#E0A23A" stroke-width="6"></path><path d="M346 236 C356 246 358 260 352 272 M360 226 C374 242 376 266 366 282" fill="none" stroke-width="4"></path>
<rect x="830" y="120" width="460" height="620" fill="#1F8A8A"></rect><rect x="830" y="120" width="460" height="40" fill="#166868"></rect>
<rect x="870" y="200" width="380" height="290" fill="#9ED2D2"></rect></g>
<svg x="870" y="200" width="380" height="290" viewBox="0 0 380 290" overflow="hidden"><rect width="380" height="290" fill="#EADBB8"></rect>
<svg x="-50" y="70" width="250" height="250" viewBox="0 0 400 400" preserveAspectRatio="xMidYMid meet" overflow="visible">
<defs><filter id="e13_r" x="-5%" y="-5%" width="110%" height="110%"><feTurbulence type="fractalNoise" baseFrequency="0.03" numOctaves="2" seed="9"></feTurbulence><feDisplacementMap in="SourceGraphic" scale="4" xChannelSelector="R" yChannelSelector="G"></feDisplacementMap></filter></defs>
<g filter="url(#e13_r)" stroke="#1E2240" stroke-width="3" stroke-linejoin="round" stroke-linecap="round">

<path d="M32.7 400 C40.9 330 98 302 169.4 293 L230.6 293 C304 302 359.1 330 367.3 400 Z" fill="#1F8A8A"></path>
<path d="M304 312 C334.6 330 355 362 361.2 400 L332.6 400 C328.5 368 318.3 338 304 312 Z" fill="#1E2240" fill-opacity="0.22" stroke="none"></path>
<path d="M88 318 L150 302 L154 316 L94 334 Z M312 318 L250 302 L246 316 L306 334 Z" fill="#E0A23A"></path><path d="M92 320 L150 304 M308 320 L250 304" fill="none" stroke="#FBF6EA" stroke-width="2"></path><circle cx="118" cy="356" r="8" fill="#E0A23A"></circle><circle cx="118" cy="356" r="3.2" fill="#FBF6EA" stroke="none"></circle><circle cx="290" cy="352" r="8" fill="#B8202E"></circle><circle cx="290" cy="352" r="3.2" fill="#FBF6EA" stroke="none"></circle>
<path d="M174 234 L172 300 L228 300 L226 234 Z" fill="#5A3222"></path><path d="M174 244 C190 264 212 264 226 244 L226 264 C210 274 190 274 174 264 Z" fill="#43241A" stroke="none"></path>
<path d="M166 290 L200 336 L234 290 Z" fill="#FBF6EA"></path><path d="M194 300 L206 300 L211 336 L200 348 L189 336 Z" fill="#2A2623"></path><path d="M162 290 L198 346 L176 350 L150 312 Z M238 290 L202 346 L224 350 L250 312 Z" fill="#166868"></path>
<path d="M140.7 176 C124 170 122 198 140.7 204 Z" fill="#5A3222"></path><path d="M260.3 172 C275.9 167 278 195 260.3 201 Z" fill="#43241A"></path>
<path d="M137.6 170 C135.5 124 166.7 104 202 104 C239.5 104 266.5 128 264.4 172 C264.4 216 241.6 254 200 258 C160.4 256 139.6 220 137.6 170 Z" fill="#5A3222"></path>
<path d="M239.5 120 C264.4 140 268.6 192 252 228 C241.6 248 222.8 256 204.1 258 C233.2 238 249.9 200 246.8 160 C244.7 142 241.6 130 239.5 120 Z" fill="#43241A" stroke="none"></path>
<path d="M160 154 L195 166" fill="none" stroke="#1E2240" stroke-width="6"></path><path d="M210 164 L246 148" fill="none" stroke="#1E2240" stroke-width="6"></path><ellipse cx="178" cy="180" rx="13" ry="8" fill="#FBF6EA"></ellipse><ellipse cx="226" cy="178" rx="14" ry="9" fill="#FBF6EA"></ellipse><circle cx="184" cy="181" r="5" fill="#1E2240" stroke="none"></circle><circle cx="233" cy="179" r="5.5" fill="#1E2240" stroke="none"></circle><path d="M164 177 Q178 168 192 176" fill="none" stroke-width="3.5"></path><path d="M211 175 Q226 166 241 174" fill="none" stroke-width="3.5"></path><path d="M201 186 Q193 206 200 213 Q210 216 215 209" fill="none"></path><path d="M184 212 Q176 224 181 236 M222 210 Q231 222 226 234" fill="none" stroke-width="2.5" opacity="0.7"></path><path d="M150 188 l-9 -3 M253 186 l9 -3" fill="none" stroke-width="2.5"></path><path d="M185 233 Q204 228 223 232" fill="none" stroke-width="4"></path><path d="M176 222 C186 208 222 208 232 222 C222 218 214 220 204 216 C194 220 186 218 176 222 Z" fill="#2A2623"></path><path d="M134 140 C128 96 166 76 204 76 C244 76 280 96 272 142 Z" fill="#166868"></path><path d="M134 126 H272 V140 H134 Z" fill="#2A2623"></path><path d="M122 146 C150 132 256 132 284 146 C276 162 132 164 122 146 Z" fill="#2A2623"></path><path d="M190 88 L204 78 L218 88 L214 108 L194 108 Z" fill="#E0A23A"></path><g transform="rotate(-8 320 360)"><rect x="276" y="318" width="96" height="120" fill="#8A5E3A"></rect><rect x="286" y="330" width="76" height="100" fill="#FBF6EA"></rect><rect x="306" y="310" width="36" height="16" fill="#C9C0B4"></rect><path d="M296 350 H350 M296 364 H344 M296 378 H350 M296 392 H330" fill="none" stroke-width="2"></path></g><path d="M262 400 C258 380 272 360 292 358 C302 360 304 372 296 380" fill="#5A3222"></path>
</g>
</svg><svg x="80" y="40" width="260" height="260" viewBox="0 0 400 400" preserveAspectRatio="xMidYMid meet" overflow="visible">
<defs><filter id="e14_r" x="-3%" y="-3%" width="106%" height="106%"><feTurbulence type="fractalNoise" baseFrequency="0.03" numOctaves="2" seed="61"></feTurbulence><feDisplacementMap in="SourceGraphic" scale="4" xChannelSelector="R" yChannelSelector="G"></feDisplacementMap></filter></defs>
<g filter="url(#e14_r)" stroke="#1E2240" stroke-width="3" stroke-linejoin="round" stroke-linecap="round">
<path d="M36 400 C44 330 100 302 170 293 L230 293 C302 302 356 330 364 400 Z" fill="#1F8A8A"></path><path d="M302 312 C332 330 352 362 358 400 L330 400 C326 368 316 338 302 312 Z" fill="#1E2240" fill-opacity="0.22" stroke="none"></path><path d="M88 318 L150 302 L154 316 L94 334 Z M312 318 L250 302 L246 316 L306 334 Z" fill="#E0A23A"></path>
<path d="M174 234 L172 300 L228 300 L226 234 Z" fill="#8E5636"></path><path d="M174 244 C190 264 212 264 226 244 L226 264 C210 274 190 274 174 264 Z" fill="#6E4028" stroke="none"></path><path d="M166 290 L200 336 L234 290 Z" fill="#FBF6EA"></path><path d="M194 300 L206 300 L211 336 L200 348 L189 336 Z" fill="#1E2240"></path><path d="M162 290 L198 346 L176 350 L150 312 Z M238 290 L202 346 L224 350 L250 312 Z" fill="#166868"></path>
<path d="M143 176 C127 170 125 198 143 204 Z" fill="#8E5636"></path><path d="M258 172 C273 167 275 195 258 201 Z" fill="#6E4028"></path>
<path d="M140 170 C138 124 168 104 202 104 C238 104 264 128 262 172 C262 216 240 254 200 258 C162 256 142 220 140 170 Z" fill="#8E5636"></path><path d="M238 120 C262 140 266 192 250 228 C240 248 222 256 204 258 C232 238 248 200 245 160 C243 142 240 130 238 120 Z" fill="#6E4028" stroke="none"></path>
<path d="M140 158 C134 116 164 96 202 96 C240 96 268 116 262 160 C254 134 232 124 202 124 C172 124 148 134 140 158 Z" fill="#2A2623"></path><g fill="#2A2623"><circle cx="150" cy="116" r="10"></circle><circle cx="168" cy="106" r="10"></circle><circle cx="186" cy="108" r="10"></circle><circle cx="204" cy="98" r="10"></circle><circle cx="222" cy="108" r="10"></circle><circle cx="240" cy="106" r="10"></circle><circle cx="256" cy="116" r="10"></circle></g><path d="M160 154 L195 165" fill="none" stroke-width="6"></path><path d="M210 164 L246 150" fill="none" stroke-width="6"></path><ellipse cx="178" cy="180" rx="13" ry="8" fill="#FBF6EA"></ellipse><ellipse cx="226" cy="178" rx="14" ry="9" fill="#FBF6EA"></ellipse><circle cx="182" cy="181" r="5" fill="#1E2240" stroke="none"></circle><circle cx="231" cy="179" r="5.5" fill="#1E2240" stroke="none"></circle><path d="M164 177 Q178 168 192 176" fill="none" stroke-width="3.5"></path><path d="M211 175 Q226 166 241 174" fill="none" stroke-width="3.5"></path><path d="M201 186 Q193 206 200 213 Q210 216 215 209" fill="none"></path><path d="M186 233 Q204 228 222 233" fill="none" stroke-width="4"></path><g transform=""><path d="M146 122 C142 84 170 70 204 70 C240 70 266 84 262 122 Z" fill="#1F8A8A"></path><path d="M146 110 H262 V124 H146 Z" fill="#166868"></path><path d="M138 126 C170 116 238 116 270 126 C262 140 146 140 138 126 Z" fill="#2A2623"></path><path d="M196 84 L204 78 L212 84 L210 98 L198 98 Z" fill="#E0A23A"></path></g>
</g>
</svg><svg x="240" y="120" width="190" height="190" viewBox="0 0 400 400" preserveAspectRatio="xMidYMid meet" overflow="visible">
<defs><filter id="e15_r" x="-5%" y="-5%" width="110%" height="110%"><feTurbulence type="fractalNoise" baseFrequency="0.03" numOctaves="2" seed="9"></feTurbulence><feDisplacementMap in="SourceGraphic" scale="4" xChannelSelector="R" yChannelSelector="G"></feDisplacementMap></filter></defs>
<g filter="url(#e15_r)" stroke="#1E2240" stroke-width="3" stroke-linejoin="round" stroke-linecap="round">
<path d="M60 400 C70 330 120 296 200 292 C280 296 330 330 340 400 Z" fill="#A8683C"></path><path d="M84 400 C92 346 130 316 200 312 C270 316 308 346 316 400 Z" fill="#1F8A8A"></path><path d="M200 314 V400" fill="none" stroke="#166868" stroke-width="4"></path><path d="M128 344 L150 340 L152 362 L130 366 Z" fill="#E0A23A"></path><path d="M252 342 C268 342 276 356 270 370" fill="none" stroke="#FBF6EA" stroke-width="3"></path>
<g transform="rotate(0 200 290)">
<path d="M150 250 C150 290 250 290 250 250 L246 300 L154 300 Z" fill="#A8683C"></path>
<path d="M244 120 L276 60 L286 136 Z" fill="#A8683C"></path><path d="M252 118 L272 82 L278 126 Z" fill="#8A4B30" stroke="none"></path>
<path d="M132 180 C128 128 160 104 200 104 C244 104 274 130 270 180 C268 226 240 256 200 258 C160 256 134 226 132 180 Z" fill="#A8683C"></path>
<path d="M252 130 C272 150 276 200 258 232 C246 248 226 256 208 258 C236 238 256 200 252 130 Z" fill="#8A4B30" stroke="none"></path>
<path d="M160 112 l-6 -14 l14 8 l2 -16 l10 14 M226 108 l6 -14 l4 14" fill="none" stroke-width="3"></path><path d="M130 196 l-12 4 M132 214 l-12 8 M270 196 l12 4" fill="none" stroke-width="3"></path>
<path d="M150 150 L128 68 L190 116 Z" fill="#A8683C"></path><path d="M152 136 L142 94 L176 118 Z" fill="#8A4B30" stroke="none"></path>
<path d="M154 214 C150 186 176 180 202 180 C230 180 256 188 250 216 C246 244 226 256 202 256 C178 256 158 244 154 214 Z" fill="#DCC89E"></path>
<circle cx="174" cy="172" r="12" fill="#FBF6EA"></circle><circle cx="230" cy="168" r="13" fill="#FBF6EA"></circle><circle cx="174" cy="172" r="4" fill="#1E2240" stroke="none"></circle><circle cx="230" cy="168" r="4.5" fill="#1E2240" stroke="none"></circle><path d="M160 148 L186 142 M218 138 L246 144" fill="none" stroke-width="5"></path>
<path d="M188 202 C188 190 216 190 216 202 C216 214 188 214 188 202 Z" fill="#2A2623"></path><circle cx="196" cy="198" r="3" fill="#FBF6EA" stroke="none"></circle>
<path d="M202 224 V234 M202 234 Q190 244 180 238 M202 234 Q214 244 224 238" fill="none"></path><path d="M104 104 L90 92 M300 96 L316 84 M200 44 V28" fill="none" stroke-width="5"></path>
</g>
</g>
</svg>
<rect width="380" height="290" fill="#9ED2D2" opacity="0.28"></rect><path d="M30 20 L120 260 M240 20 L300 180" stroke="#FBF6EA" stroke-width="10" opacity="0.5"></path></svg>
<g filter="url(#r)" stroke="#1E2240" stroke-width="3"><rect x="870" y="200" width="380" height="290" fill="none"></rect><path d="M1060 200 V490 M870 345 H1250" fill="none" stroke="#166868" stroke-width="10"></path><path d="M870 490 H1250" fill="none" stroke="#C4552D" stroke-width="14"></path></g>
</svg>