<svg xmlns="http://www.w3.org/2000/svg" viewBox="0 0 1280 720" width="1280" height="720" xmlns:c2pa="http://c2pa.org/manifest"><metadata><c2pa:manifest>AAAWgmp1bWIAAAAeanVtZGMycGEAEQAQgAAAqgA4m3EDYzJwYQAAABZcanVtYgAAAEdqdW1kYzJtYQARABCAAACqADibcQN1cm46YzJwYTo0YzUyY2VhNi02ZTZjLTQ2ZTgtOWYzZC1lNjk5N2FjNDQ1MzQAAAADl2p1bWIAAAApanVtZGMyYXMAEQAQgAAAqgA4m3EDYzJwYS5hc3NlcnRpb25zAAAAALxqdW1iAAAARGp1bWRjYm9yABEAEIAAAKoAOJtxE2MycGEuaW5ncmVkaWVudC52MwAAAAAYYzJzaHcef0b3Zx5uv7ddmAcKUCAAAABwY2JvcqNpZGM6Zm9ybWF0bWltYWdlL3N2Zyt4bWxqaW5zdGFuY2VJRHgseG1wOmlpZDphM2VlZjAxZC1jZDk4LTQyZDctYTY3My03MWZlZjNjMzA5YmZscmVsYXRpb25zaGlwaHBhcmVudE9mAAAB4mp1bWIAAABBanVtZGNib3IAEQAQgAAAqgA4m3ETYzJwYS5hY3Rpb25zLnYyAAAAABhjMnNoA5jc/k9wuo7KY6SegjbyGQAAAZljYm9yomdhY3Rpb25zgqJmYWN0aW9ua2MycGEub3BlbmVkanBhcmFtZXRlcnOha2luZ3JlZGllbnRzgaJjdXJseC1zZWxmI2p1bWJmPWMycGEuYXNzZXJ0aW9ucy9jMnBhLmluZ3JlZGllbnQudjNkaGFzaFggIk0IevaRK+bglnsU//lLZnW38k1lNxGC1ZaCTErgEK2kZmFjdGlvbngdY29tLmFudGhyb3BpYy5jbGF1ZGUucHJvdmlkZWRqcGFyYW1ldGVyc6F4H2NvbS5hbnRocm9waWMub3JpZ2luLWNvbmZpZGVuY2VndW5rbm93bmtkZXNjcmlwdGlvbnhmQ2xhdWRlIHByb3ZpZGVkIHRoaXMgZmlsZSBhdCB0aGUgcmVxdWVzdCBvZiBhIHVzZXIgYW5kIG1heSBoYXZlIGNyZWF0ZWQgb3IgbW9kaWZpZWQgdGhlIGZpbGUgY29udGVudHMubXNvZnR3YXJlQWdlbnShZG5hbWVmQ2xhdWRlcmFsbEFjdGlvbnNJbmNsdWRlZPUAAADIanVtYgAAAEBqdW1kY2JvcgARABCAAACqADibcRNjMnBhLmhhc2guZGF0YQAAAAAYYzJzaLrQeWfc8RVegMS48GzdZhAAAACAY2JvcqVjYWxnZnNoYTI1NmNwYWRNAAAAAAAAAAAAAAAAAGRoYXNoWCC/NTx1KAWxpfWZAfFcrePsXpcoo5b10O/xk4O9FauN7mRuYW1lbmp1bWJmIG1hbmlmZXN0amV4Y2x1c2lvbnOBomVzdGFydBiYZmxlbmd0aBkeBAAAAj5qdW1iAAAAJ2p1bWRjMmNsABEAEIAAAKoAOJtxA2MycGEuY2xhaW0udjIAAAACD2Nib3KlY2FsZ2ZzaGEyNTZpc2lnbmF0dXJleE1zZWxmI2p1bWJmPS9jMnBhL3VybjpjMnBhOjRjNTJjZWE2LTZlNmMtNDZlOC05ZjNkLWU2OTk3YWM0NDUzNC9jMnBhLnNpZ25hdHVyZWppbnN0YW5jZUlEeCx4bXA6aWlkOjgzNmU1OTQyLWY3NWYtNDdlOC1iODQ3LTdjNzYyMTM0MzdlNnJjcmVhdGVkX2Fzc2VydGlvbnODomN1cmx4LXNlbGYjanVtYmY9YzJwYS5hc3NlcnRpb25zL2MycGEuaW5ncmVkaWVudC52M2RoYXNoWCAiTQh69pEr5uCWexT/+UtmdbfyTWU3EYLVloJMSuAQraJjdXJseCpzZWxmI2p1bWJmPWMycGEuYXNzZXJ0aW9ucy9jMnBhLmFjdGlvbnMudjJkaGFzaFgg1b0MqNOSvLghO6qV7pcICqWSw98h4oZDb8n4fT6HdTKiY3VybHgpc2VsZiNqdW1iZj1jMnBhLmFzc2VydGlvbnMvYzJwYS5oYXNoLmRhdGFkaGFzaFggLr/OJN+D5epkA7GwYTG2Ljaw3sTzr3kCbdqo0AZREW10Y2xhaW1fZ2VuZXJhdG9yX2luZm+jZG5hbWVvQW50aHJvcGljIEZpbGVzZ3ZlcnNpb25lMS4wLjBrc3BlY1ZlcnNpb25lMi40LjAAABA4anVtYgAAAChqdW1kYzJjcwARABCAAACqADibcQNjMnBhLnNpZ25hdHVyZQAAABAIY2JvctKEWQISogEmGCFZAgowggIGMIIBjaADAgECAhRA5aAK7sI50L64g/oGQgU9Z1UTADAKBggqhkjOPQQDAzBJMRcwFQYDVQQKEw5BbnRocm9waWMsIFBCQzEuMCwGA1UEAxMlQW50aHJvcGljIENvbnRlbnQgQ3JlZGVudGlhbHMgUm9vdCBDQTAeFw0yNjA4MDcxODQzNTZaFw0yODA4MDYxOTQzNTZaMEQxFzAVBgNVBAoTDkFudGhyb3BpYywgUEJDMSkwJwYDVQQDEyBBbnRocm9waWMgQ2xhdWRlIENvbnRlbnQgU2lnbmluZzBZMBMGByqGSM49AgEGCCqGSM49AwEHA0IABJh6CmvLUBgFFNU0vUKlOVtE6djd17L5SuwX0LemFisBM3dkd/3cyjxFA3Qo5S46fX0/ihY0VZ7mfb9KF703t5OjWDBWMA4GA1UdDwEB/wQEAwIHgDAVBgNVHSUEDjAMBgorBgEEAYPoXgIBMAwGA1UdEwEB/wQCMAAwHwYDVR0jBBgwFoAUzlHiBIFOZFsj+OPEz5o+nMHXXMIwCgYIKoZIzj0EAwMDZwAwZAIwMXMdFJ4BetLLVY7ORuE9noqbbAZOZn/aArXyTwFAZfKrPzxF2vPoJNf1+UCdg1XGAjBwX1zd9WGqYkqmL5SFqw1QySjr1zJfpJM9+1rdDwSPLMOPOjKuiXjoU/pUUeG9RwmhY3BhZFkNngAAAAAAAAAAAAAAAAAAAAAAAAAAAAAAAAAAAAAAAAAAAAAAAAAAAAAAAAAAAAAAAAAAAAAAAAAAAAAAAAAAAAAAAAAAAAAAAAAAAAAAAAAAAAAAAAAAAAAAAAAAAAAAAAAAAAAAAAAAAAAAAAAAAAAAAAAAAAAAAAAAAAAAAAAAAAAAAAAAAAAAAAAAAAAAAAAAAAAAAAAAAAAAAAAAAAAAAAAAAAAAAAAAAAAAAAAAAAAAAAAAAAAAAAAAAAAAAAAAAAAAAAAAAAAAAAAAAAAAAAAAAAAAAAAAAAAAAAAAAAAAAAAAAAAAAAAAAAAAAAAAAAAAAAAAAAAAAAAAAAAAAAAAAAAAAAAAAAAAAAAAAAAAAAAAAAAAAAAAAAAAAAAAAAAAAAAAAAAAAAAAAAAAAAAAAAAAAAAAAAAAAAAAAAAAAAAAAAAAAAAAAAAAAAAAAAAAAAAAAAAAAAAAAAAAAAAAAAAAAAAAAAAAAAAAAAAAAAAAAAAAAAAAAAAAAAAAAAAAAAAAAAAAAAAAAAAAAAAAAAAAAAAAAAAAAAAAAAAAAAAAAAAAAAAAAAAAAAAAAAAAAAAAAAAAAAAAAAAAAAAAAAAAAAAAAAAAAAAAAAAAAAAAAAAAAAAAAAAAAAAAAAAAAAAAAAAAAAAAAAAAAAAAAAAAAAAAAAAAAAAAAAAAAAAAAAAAAAAAAAAAAAAAAAAAAAAAAAAAAAAAAAAAAAAAAAAAAAAAAAAAAAAAAAAAAAAAAAAAAAAAAAAAAAAAAAAAAAAAAAAAAAAAAAAAAAAAAAAAAAAAAAAAAAAAAAAAAAAAAAAAAAAAAAAAAAAAAAAAAAAAAAAAAAAAAAAAAAAAAAAAAAAAAAAAAAAAAAAAAAAAAAAAAAAAAAAAAAAAAAAAAAAAAAAAAAAAAAAAAAAAAAAAAAAAAAAAAAAAAAAAAAAAAAAAAAAAAAAAAAAAAAAAAAAAAAAAAAAAAAAAAAAAAAAAAAAAAAAAAAAAAAAAAAAAAAAAAAAAAAAAAAAAAAAAAAAAAAAAAAAAAAAAAAAAAAAAAAAAAAAAAAAAAAAAAAAAAAAAAAAAAAAAAAAAAAAAAAAAAAAAAAAAAAAAAAAAAAAAAAAAAAAAAAAAAAAAAAAAAAAAAAAAAAAAAAAAAAAAAAAAAAAAAAAAAAAAAAAAAAAAAAAAAAAAAAAAAAAAAAAAAAAAAAAAAAAAAAAAAAAAAAAAAAAAAAAAAAAAAAAAAAAAAAAAAAAAAAAAAAAAAAAAAAAAAAAAAAAAAAAAAAAAAAAAAAAAAAAAAAAAAAAAAAAAAAAAAAAAAAAAAAAAAAAAAAAAAAAAAAAAAAAAAAAAAAAAAAAAAAAAAAAAAAAAAAAAAAAAAAAAAAAAAAAAAAAAAAAAAAAAAAAAAAAAAAAAAAAAAAAAAAAAAAAAAAAAAAAAAAAAAAAAAAAAAAAAAAAAAAAAAAAAAAAAAAAAAAAAAAAAAAAAAAAAAAAAAAAAAAAAAAAAAAAAAAAAAAAAAAAAAAAAAAAAAAAAAAAAAAAAAAAAAAAAAAAAAAAAAAAAAAAAAAAAAAAAAAAAAAAAAAAAAAAAAAAAAAAAAAAAAAAAAAAAAAAAAAAAAAAAAAAAAAAAAAAAAAAAAAAAAAAAAAAAAAAAAAAAAAAAAAAAAAAAAAAAAAAAAAAAAAAAAAAAAAAAAAAAAAAAAAAAAAAAAAAAAAAAAAAAAAAAAAAAAAAAAAAAAAAAAAAAAAAAAAAAAAAAAAAAAAAAAAAAAAAAAAAAAAAAAAAAAAAAAAAAAAAAAAAAAAAAAAAAAAAAAAAAAAAAAAAAAAAAAAAAAAAAAAAAAAAAAAAAAAAAAAAAAAAAAAAAAAAAAAAAAAAAAAAAAAAAAAAAAAAAAAAAAAAAAAAAAAAAAAAAAAAAAAAAAAAAAAAAAAAAAAAAAAAAAAAAAAAAAAAAAAAAAAAAAAAAAAAAAAAAAAAAAAAAAAAAAAAAAAAAAAAAAAAAAAAAAAAAAAAAAAAAAAAAAAAAAAAAAAAAAAAAAAAAAAAAAAAAAAAAAAAAAAAAAAAAAAAAAAAAAAAAAAAAAAAAAAAAAAAAAAAAAAAAAAAAAAAAAAAAAAAAAAAAAAAAAAAAAAAAAAAAAAAAAAAAAAAAAAAAAAAAAAAAAAAAAAAAAAAAAAAAAAAAAAAAAAAAAAAAAAAAAAAAAAAAAAAAAAAAAAAAAAAAAAAAAAAAAAAAAAAAAAAAAAAAAAAAAAAAAAAAAAAAAAAAAAAAAAAAAAAAAAAAAAAAAAAAAAAAAAAAAAAAAAAAAAAAAAAAAAAAAAAAAAAAAAAAAAAAAAAAAAAAAAAAAAAAAAAAAAAAAAAAAAAAAAAAAAAAAAAAAAAAAAAAAAAAAAAAAAAAAAAAAAAAAAAAAAAAAAAAAAAAAAAAAAAAAAAAAAAAAAAAAAAAAAAAAAAAAAAAAAAAAAAAAAAAAAAAAAAAAAAAAAAAAAAAAAAAAAAAAAAAAAAAAAAAAAAAAAAAAAAAAAAAAAAAAAAAAAAAAAAAAAAAAAAAAAAAAAAAAAAAAAAAAAAAAAAAAAAAAAAAAAAAAAAAAAAAAAAAAAAAAAAAAAAAAAAAAAAAAAAAAAAAAAAAAAAAAAAAAAAAAAAAAAAAAAAAAAAAAAAAAAAAAAAAAAAAAAAAAAAAAAAAAAAAAAAAAAAAAAAAAAAAAAAAAAAAAAAAAAAAAAAAAAAAAAAAAAAAAAAAAAAAAAAAAAAAAAAAAAAAAAAAAAAAAAAAAAAAAAAAAAAAAAAAAAAAAAAAAAAAAAAAAAAAAAAAAAAAAAAAAAAAAAAAAAAAAAAAAAAAAAAAAAAAAAAAAAAAAAAAAAAAAAAAAAAAAAAAAAAAAAAAAAAAAAAAAAAAAAAAAAAAAAAAAAAAAAAAAAAAAAAAAAAAAAAAAAAAAAAAAAAAAAAAAAAAAAAAAAAAAAAAAAAAAAAAAAAAAAAAAAAAAAAAAAAAAAAAAAAAAAAAAAAAAAAAAAAAAAAAAAAAAAAAAAAAAAAAAAAAAAAAAAAAAAAAAAAAAAAAAAAAAAAAAAAAAAAAAAAAAAAAAAAAAAAAAAAAAAAAAAAAAAAAAAAAAAAAAAAAAAAAAAAAAAAAAAAAAAAAAAAAAAAAAAAAAAAAAAAAAAAAAAAAAAAAAAAAAAAAAAAAAAAAAAAAAAAAAAAAAAAAAAAAAAAAAAAAAAAAAAAAAAAAAAAAAAAAAAAAAAAAAAAAAAAAAAAAAAAAAAAAAAAAAAAAAAAAAAAAAAAAAAAAAAAAAAAAAAAAAAAAAAAAAAAAAAAAAAAAAAAAAAAAAAAAAAAAAAAAAAAAAAAAAAAAAAAAAAAAAAAAAAAAAAAAAAAAAAAAAAAAAAAAAAAAAAAAAAAAAAAAAAAAAAAAAAAAAAAAAAAAAAAAAAAAAAAAAAAAAAAAAAAAAAAAAAAAAAAAAAAAAAAAAAAAAAAAAAAAAAAAAAAAAAAAAAAAAAAAAAAAAAAAAAAAAAAAAAAAAAAAAAAAAAAAAAAAAAAAAAAAAAAAAAAAAAAAAAAAAAAAAAAAAAAAAAAAAAAAAAAAAAAAAAAAAAAAAAAAAAAAAAAAAAAAAAAAAAAAAAAAAAAAAAAAAAAAAAAAAAAAAAAAAAAAAAAAAAAAAAAAAAAAAAAAAAAAAAAAAAAAAAAAAAAAAAAAAAAAAAAAAAAAAAAAAAAAAAAAAAAAAAAAAAAAAAAAAAAAAAAAAAAAAAAAAAAAAAAAAAAAAAAAAAAAAAAAAAAAAAAAAAAAAAAAAAAAAAAAAAAAAAAAAAAAAAAAAAAAAAAAAAAAAAAAAAAAAAAAAAAAAAAAAAAAAAAAAAAAAAAAAAAAAAAAAAAAAAAAAAAAAAAAAAAAAAAAAAAAAAAAAAAAAAAAAAAAAAAAAAAAAAAAAAAAAAAAAAAAAAAAAAAAAAAAAAAAAAAAAAAAAAAAAAAAAAAAAAAAAAAAAAAAAAAAAAAAAAAAAAAAAAAAAAAAAAAAAAAAAAAAAAAAAAAAAAAAAAAAAAAAAAAAAAAAAAAAAAAAAAAAAAAAAAAAAAAAAAAAAAAAAAAAAAAAAAAAAAAAAAAAAAAAAAAAAAAAAAAAAAAAAAAAAAAAAAAAAAAAAAAAAAAAAAAAAAAAAAAAAAAAAAAAAAAAAAAAAAAAAAAAAAAAAAAAAAAAAAAAAAAAAAAAAAAAAAAAAAAAAAAAAAAAAAAAAAAAAAAAAAAAAAAAAAAAAAAAAAAAAAAAAAAAAAAAAAAAAAAAAAAAAAAAAAAAAAAAAAAAAAAAAAAAAAAAAAAAAAAAAAAAAAAAAAAAAAAAAAAAAAAAAAAAAAAAAAAAAAAAAAAAAAAAAAAAAAAAAAAAAAAAAAAAAAAAAAAAAAAAAAAAAAAAAAAAAAAAAAAAAAAAAAAAAAAAAAAAAAAAAAAAAAAAAAAAAAAAAAAAAAAAAAAAAAAAAAAAAAAAAAAAAAAAAAAAAAAAAAAAAAAAAAAAAAAAAAAAAAAAAAAAAAAAAAAAAAAAAAAAAAAAAAAAAAAAAAAAAAAAAAAAAAAAAAAAAAAAAAAAAAAAAAAAAAAAAAAAAAAAAAAAAAAAAAAAAAAAAAAAAAAAAAAAAAAAAAAAAAAAAAAAAPZYQD38rRGkA+xI5XnfIXwMqoeJrQlf8sL7flCejSSNGSBO6I1++1qbrOohYH5EK/UdPdpgrcz06SQ4J8uJ7Z+lzRU=</c2pa:manifest></metadata>
<defs><pattern id="scan2" width="6" height="6" patternUnits="userSpaceOnUse"><path d="M0 1 H6" stroke="#FBF6EA" stroke-width="1.5" opacity="0.18"></path></pattern></defs>
<svg x="0" y="0" width="1280" height="720" viewBox="0 0 1280 720" preserveAspectRatio="xMidYMid meet" overflow="visible">
<defs><filter id="e5_r" x="-3%" y="-3%" width="106%" height="106%"><feTurbulence type="fractalNoise" baseFrequency="0.012" numOctaves="2" seed="42"></feTurbulence><feDisplacementMap in="SourceGraphic" scale="5" xChannelSelector="R" yChannelSelector="G"></feDisplacementMap></filter><pattern id="e5_scan" width="6" height="6" patternUnits="userSpaceOnUse"><path d="M0 1 H6" stroke="#1F8A8A" stroke-width="1.5" opacity="0.3"></path></pattern></defs>
<g filter="url(#e5_r)" stroke="#1E2240" stroke-width="3" stroke-linejoin="round" stroke-linecap="round">
<rect x="-10" y="-10" width="1300" height="740" fill="#3A3634" stroke="none"></rect><rect x="-10" y="470" width="1300" height="260" fill="#2A2623"></rect>
<rect x="110" y="50" width="1060" height="380" fill="#2A2623"></rect>
<rect x="130" y="70" width="290" height="160" fill="#12302F"></rect><path d="M150 200 H400 M180 200 V170 H240 V200 M260 200 V160 H330 V200" fill="none" stroke="#3E8A84" stroke-width="4"></path><rect x="130" y="70" width="290" height="160" fill="url(#e5_scan)" stroke="none"></rect><circle cx="146" cy="86" r="5" fill="#B8202E" stroke="none"></circle>
<rect x="130" y="250" width="290" height="160" fill="#12302F"></rect><path d="M150 380 L400 350 M200 380 V330 H260 V372" fill="none" stroke="#3E8A84" stroke-width="4"></path><rect x="130" y="250" width="290" height="160" fill="url(#e5_scan)" stroke="none"></rect><circle cx="146" cy="266" r="5" fill="#B8202E" stroke="none"></circle>
<rect x="860" y="70" width="290" height="160" fill="#12302F"></rect><path d="M880 200 H1130 M900 200 V150 L960 130 V200 M1000 200 V170 H1060 V200" fill="none" stroke="#3E8A84" stroke-width="4"></path><rect x="860" y="70" width="290" height="160" fill="url(#e5_scan)" stroke="none"></rect><circle cx="876" cy="86" r="5" fill="#B8202E" stroke="none"></circle>
<rect x="860" y="250" width="290" height="160" fill="#12302F"></rect><path d="M880 380 H1130 M940 380 C940 340 1000 340 1000 380" fill="none" stroke="#3E8A84" stroke-width="4"></path><rect x="860" y="250" width="290" height="160" fill="url(#e5_scan)" stroke="none"></rect><circle cx="876" cy="266" r="5" fill="#B8202E" stroke="none"></circle>
<rect x="440" y="70" width="400" height="340" fill="#12302F"></rect><rect x="440" y="70" width="400" height="340" fill="url(#e5_scan)" stroke="none"></rect><circle cx="456" cy="86" r="5" fill="#B8202E" stroke="none"></circle>
<path d="M110 430 H1170 L1180 446 H100 Z" fill="#4A3F37"></path>
<path d="M-10 560 L1290 536 V730 H-10 Z" fill="#C4552D"></path><path d="M-10 560 L1290 536 V556 L-10 580 Z" fill="#9A3F1F"></path>
<rect x="430" y="590" width="420" height="70" fill="#2A2623" transform="rotate(-1 640 620)"></rect>
<g transform="rotate(-1 640 620)"><rect x="448" y="606" width="34" height="16" fill="#FBF6EA" stroke-width="2"></rect><rect x="448" y="630" width="34" height="16" fill="#FBF6EA" stroke-width="2"></rect><rect x="498" y="606" width="34" height="16" fill="#FBF6EA" stroke-width="2"></rect><rect x="498" y="630" width="34" height="16" fill="#FBF6EA" stroke-width="2"></rect><rect x="548" y="606" width="34" height="16" fill="#FBF6EA" stroke-width="2"></rect><rect x="548" y="630" width="34" height="16" fill="#FBF6EA" stroke-width="2"></rect><rect x="598" y="606" width="34" height="16" fill="#FBF6EA" stroke-width="2"></rect><rect x="598" y="630" width="34" height="16" fill="#FBF6EA" stroke-width="2"></rect><rect x="648" y="606" width="34" height="16" fill="#FBF6EA" stroke-width="2"></rect><rect x="648" y="630" width="34" height="16" fill="#FBF6EA" stroke-width="2"></rect><rect x="698" y="606" width="34" height="16" fill="#FBF6EA" stroke-width="2"></rect><rect x="698" y="630" width="34" height="16" fill="#FBF6EA" stroke-width="2"></rect><rect x="748" y="606" width="34" height="16" fill="#FBF6EA" stroke-width="2"></rect><rect x="748" y="630" width="34" height="16" fill="#FBF6EA" stroke-width="2"></rect><rect x="798" y="606" width="34" height="16" fill="#FBF6EA" stroke-width="2"></rect><rect x="798" y="630" width="34" height="16" fill="#FBF6EA" stroke-width="2"></rect></g>
<circle cx="200" cy="610" r="14" fill="#B8202E"></circle><circle cx="244" cy="606" r="14" fill="#E0A23A"></circle><circle cx="288" cy="602" r="14" fill="#2E7D4F"></circle>
<path d="M1000 600 L1004 650 C1004 660 1044 660 1044 650 L1048 600 Z" fill="#FBF6EA"></path><path d="M1048 612 C1068 612 1068 640 1046 640" fill="none" stroke-width="5"></path><path d="M1010 598 C1012 586 1006 580 1012 570 M1030 598 C1032 586 1026 580 1032 570" fill="none" stroke="#FBF6EA" stroke-width="3"></path>
</g>
</svg>
<svg x="440" y="70" width="400" height="340" viewBox="0 0 400 340"><rect width="400" height="340" fill="#12302F"></rect><svg x="20" y="-10" width="360" height="360" viewBox="0 0 400 400" preserveAspectRatio="xMidYMid meet" overflow="visible">
<defs><filter id="e6_r" x="-5%" y="-5%" width="110%" height="110%"><feTurbulence type="fractalNoise" baseFrequency="0.03" numOctaves="2" seed="9"></feTurbulence><feDisplacementMap in="SourceGraphic" scale="4" xChannelSelector="R" yChannelSelector="G"></feDisplacementMap></filter><pattern id="e6_leo" width="44" height="44" patternUnits="userSpaceOnUse"><rect width="44" height="44" fill="#E0A23A"></rect><g fill="none" stroke="#2A2623" stroke-width="4" stroke-linecap="round"><path d="M6 8 C4 14 8 18 12 18 M16 6 C20 8 22 12 20 16"></path><path d="M28 28 C26 34 30 38 34 38 M38 26 C42 28 44 32 42 36"></path></g><circle cx="13" cy="12" r="3" fill="#B87F24"></circle><circle cx="35" cy="32" r="3" fill="#B87F24"></circle></pattern></defs>
<g filter="url(#e6_r)" stroke="#1E2240" stroke-width="3" stroke-linejoin="round" stroke-linecap="round">
<path d="M0 400 C8 320 80 280 200 276 C320 280 392 320 400 400 Z" fill="url(#e6_leo)"></path>
<path d="M160 280 L200 360 L240 280 Z" fill="#8C8078"></path><path d="M150 280 L200 362 L130 330 L120 300 Z M250 280 L200 362 L270 330 L280 300 Z" fill="url(#e6_leo)"></path>
<path d="M150 286 C160 350 240 350 250 286" fill="none" stroke-width="11"></path><path d="M150 286 C160 350 240 350 250 286" fill="none" stroke="#E0A23A" stroke-width="6"></path>
<circle cx="140" cy="86" r="18" fill="#8C8078"></circle><circle cx="140" cy="86" r="8" fill="#D98A6A" stroke="none"></circle><circle cx="264" cy="84" r="18" fill="#8C8078"></circle><circle cx="264" cy="84" r="8" fill="#D98A6A" stroke="none"></circle>
<path d="M112 170 C104 110 150 76 204 76 C260 76 302 110 294 170 L300 280 L104 280 Z" fill="#8C8078"></path>
<path d="M88 226 C82 190 118 176 200 176 C284 176 320 190 312 228 C306 274 260 304 200 304 C140 304 94 274 88 226 Z" fill="#8C8078"></path>
<path d="M290 190 C318 206 312 260 280 286 C300 256 304 222 290 190 Z" fill="#6E625A" stroke="none"></path>
<ellipse cx="166" cy="200" rx="12" ry="8" fill="#2A2623"></ellipse><ellipse cx="236" cy="200" rx="12" ry="8" fill="#2A2623"></ellipse>
<circle cx="126" cy="230" r="14" fill="#D98A6A" stroke="none" opacity="0.6"></circle><circle cx="276" cy="226" r="13" fill="#D98A6A" stroke="none" opacity="0.6"></circle>
<path d="M130 130 L186 132" fill="none" stroke-width="7"></path><path d="M218 126 Q246 110 274 120" fill="none" stroke-width="7"></path>
<path d="M128 138 H196 C198 162 186 176 164 176 C142 176 128 162 128 138 Z" fill="#2A2623"></path><path d="M208 138 H276 C278 162 264 176 242 176 C220 176 206 162 208 138 Z" fill="#2A2623"></path><path d="M196 144 H208 M128 140 L108 132 M276 140 L296 132" fill="none" stroke="#E0A23A" stroke-width="4"></path><path d="M140 148 L156 144 M220 148 L236 144" fill="none" stroke="#FBF6EA" stroke-width="3"></path>
<path d="M112 250 Q200 290 292 244 Q200 270 112 250 Z" fill="#5A1820"></path><path d="M120 252 Q200 272 284 248 L282 256 Q200 280 122 260 Z" fill="#FBF6EA" stroke-width="2"></path><rect x="226" y="256" width="12" height="10" fill="#E0A23A" stroke-width="2"></rect>
<path d="M40 400 C40 370 60 350 90 350 C112 352 118 370 106 384 C118 388 118 400 110 400 Z" fill="#8C8078"></path><path d="M70 356 V372 M86 354 V370" fill="none" stroke="#E0A23A" stroke-width="7"></path><path d="M62 360 H78 M78 358 H94" fill="none" stroke="#E0A23A" stroke-width="5"></path>
</g>
</svg><rect width="400" height="340" fill="#1F8A8A" opacity="0.28"></rect><rect width="400" height="340" fill="url(#scan2)"></rect><circle cx="18" cy="18" r="6" fill="#B8202E"></circle></svg>
<svg x="-30" y="330" width="420" height="420" viewBox="0 0 400 400" preserveAspectRatio="xMidYMid meet" overflow="visible">
<defs><filter id="e7_r" x="-5%" y="-5%" width="110%" height="110%"><feTurbulence type="fractalNoise" baseFrequency="0.03" numOctaves="2" seed="9"></feTurbulence><feDisplacementMap in="SourceGraphic" scale="4" xChannelSelector="R" yChannelSelector="G"></feDisplacementMap></filter></defs>
<g filter="url(#e7_r)" stroke="#1E2240" stroke-width="3" stroke-linejoin="round" stroke-linecap="round">

<path d="M32.7 400 C40.9 330 98 302 169.4 293 L230.6 293 C304 302 359.1 330 367.3 400 Z" fill="#1F8A8A"></path>
<path d="M304 312 C334.6 330 355 362 361.2 400 L332.6 400 C328.5 368 318.3 338 304 312 Z" fill="#1E2240" fill-opacity="0.22" stroke="none"></path>
<path d="M88 318 L150 302 L154 316 L94 334 Z M312 318 L250 302 L246 316 L306 334 Z" fill="#E0A23A"></path><path d="M92 320 L150 304 M308 320 L250 304" fill="none" stroke="#FBF6EA" stroke-width="2"></path><circle cx="118" cy="356" r="8" fill="#E0A23A"></circle><circle cx="118" cy="356" r="3.2" fill="#FBF6EA" stroke="none"></circle><circle cx="290" cy="352" r="8" fill="#B8202E"></circle><circle cx="290" cy="352" r="3.2" fill="#FBF6EA" stroke="none"></circle>
<path d="M174 234 L172 300 L228 300 L226 234 Z" fill="#5A3222"></path><path d="M174 244 C190 264 212 264 226 244 L226 264 C210 274 190 274 174 264 Z" fill="#43241A" stroke="none"></path>
<path d="M166 290 L200 336 L234 290 Z" fill="#FBF6EA"></path><path d="M194 300 L206 300 L211 336 L200 348 L189 336 Z" fill="#2A2623"></path><path d="M162 290 L198 346 L176 350 L150 312 Z M238 290 L202 346 L224 350 L250 312 Z" fill="#166868"></path>
<path d="M140.7 176 C124 170 122 198 140.7 204 Z" fill="#5A3222"></path><path d="M260.3 172 C275.9 167 278 195 260.3 201 Z" fill="#43241A"></path>
<path d="M137.6 170 C135.5 124 166.7 104 202 104 C239.5 104 266.5 128 264.4 172 C264.4 216 241.6 254 200 258 C160.4 256 139.6 220 137.6 170 Z" fill="#5A3222"></path>
<path d="M239.5 120 C264.4 140 268.6 192 252 228 C241.6 248 222.8 256 204.1 258 C233.2 238 249.9 200 246.8 160 C244.7 142 241.6 130 239.5 120 Z" fill="#43241A" stroke="none"></path>
<path d="M160 163 L194 153" fill="none" stroke="#1E2240" stroke-width="6"></path><path d="M210 151 L244 161" fill="none" stroke="#1E2240" stroke-width="6"></path><ellipse cx="178" cy="180" rx="13" ry="8" fill="#FBF6EA"></ellipse><ellipse cx="226" cy="178" rx="14" ry="9" fill="#FBF6EA"></ellipse><circle cx="180" cy="179" r="5" fill="#1E2240" stroke="none"></circle><circle cx="229" cy="177" r="5.5" fill="#1E2240" stroke="none"></circle><path d="M164 177 Q178 168 192 176" fill="none" stroke-width="3.5"></path><path d="M211 175 Q226 166 241 174" fill="none" stroke-width="3.5"></path><path d="M201 186 Q193 206 200 213 Q210 216 215 209" fill="none"></path><path d="M184 212 Q176 224 181 236 M222 210 Q231 222 226 234" fill="none" stroke-width="2.5" opacity="0.7"></path><path d="M150 188 l-9 -3 M253 186 l9 -3" fill="none" stroke-width="2.5"></path><path d="M188 237 Q204 228 220 236" fill="none" stroke-width="4"></path><path d="M256 140.4 C262.4 150 262.4 156.4 256 156.4 C249.6 156.4 249.6 150 256 140.4 Z" fill="#9ED2D2" stroke-width="2.5"></path><path d="M176 222 C186 208 222 208 232 222 C222 218 214 220 204 216 C194 220 186 218 176 222 Z" fill="#2A2623"></path><path d="M134 140 C128 96 166 76 204 76 C244 76 280 96 272 142 Z" fill="#166868"></path><path d="M134 126 H272 V140 H134 Z" fill="#2A2623"></path><path d="M122 146 C150 132 256 132 284 146 C276 162 132 164 122 146 Z" fill="#2A2623"></path><path d="M190 88 L204 78 L218 88 L214 108 L194 108 Z" fill="#E0A23A"></path><g transform="rotate(-8 320 360)"><rect x="276" y="318" width="96" height="120" fill="#8A5E3A"></rect><rect x="286" y="330" width="76" height="100" fill="#FBF6EA"></rect><rect x="306" y="310" width="36" height="16" fill="#C9C0B4"></rect><path d="M296 350 H350 M296 364 H344 M296 378 H350 M296 392 H330" fill="none" stroke-width="2"></path></g><path d="M262 400 C258 380 272 360 292 358 C302 360 304 372 296 380" fill="#5A3222"></path>
</g>
</svg>
<svg x="470" y="470" width="280" height="280" viewBox="0 0 400 400" preserveAspectRatio="xMidYMid meet" overflow="visible">
<defs><filter id="e8_r" x="-5%" y="-5%" width="110%" height="110%"><feTurbulence type="fractalNoise" baseFrequency="0.03" numOctaves="2" seed="9"></feTurbulence><feDisplacementMap in="SourceGraphic" scale="4" xChannelSelector="R" yChannelSelector="G"></feDisplacementMap></filter></defs>
<g filter="url(#e8_r)" stroke="#1E2240" stroke-width="3" stroke-linejoin="round" stroke-linecap="round">
<path d="M60 400 C70 330 120 296 200 292 C280 296 330 330 340 400 Z" fill="#A8683C"></path><path d="M84 400 C92 346 130 316 200 312 C270 316 308 346 316 400 Z" fill="#1F8A8A"></path><path d="M200 314 V400" fill="none" stroke="#166868" stroke-width="4"></path><path d="M128 344 L150 340 L152 362 L130 366 Z" fill="#E0A23A"></path><path d="M252 342 C268 342 276 356 270 370" fill="none" stroke="#FBF6EA" stroke-width="3"></path>
<g transform="rotate(0 200 290)">
<path d="M150 250 C150 290 250 290 250 250 L246 300 L154 300 Z" fill="#A8683C"></path>
<path d="M244 120 L276 60 L286 136 Z" fill="#A8683C"></path><path d="M252 118 L272 82 L278 126 Z" fill="#8A4B30" stroke="none"></path>
<path d="M132 180 C128 128 160 104 200 104 C244 104 274 130 270 180 C268 226 240 256 200 258 C160 256 134 226 132 180 Z" fill="#A8683C"></path>
<path d="M252 130 C272 150 276 200 258 232 C246 248 226 256 208 258 C236 238 256 200 252 130 Z" fill="#8A4B30" stroke="none"></path>
<path d="M160 112 l-6 -14 l14 8 l2 -16 l10 14 M226 108 l6 -14 l4 14" fill="none" stroke-width="3"></path><path d="M130 196 l-12 4 M132 214 l-12 8 M270 196 l12 4" fill="none" stroke-width="3"></path>
<path d="M150 150 L128 68 L190 116 Z" fill="#A8683C"></path><path d="M152 136 L142 94 L176 118 Z" fill="#8A4B30" stroke="none"></path>
<path d="M154 214 C150 186 176 180 202 180 C230 180 256 188 250 216 C246 244 226 256 202 256 C178 256 158 244 154 214 Z" fill="#DCC89E"></path>
<circle cx="174" cy="172" r="12" fill="#FBF6EA"></circle><circle cx="230" cy="168" r="13" fill="#FBF6EA"></circle><circle cx="174" cy="172" r="4" fill="#1E2240" stroke="none"></circle><circle cx="230" cy="168" r="4.5" fill="#1E2240" stroke="none"></circle><path d="M160 148 L186 142 M218 138 L246 144" fill="none" stroke-width="5"></path>
<path d="M188 202 C188 190 216 190 216 202 C216 214 188 214 188 202 Z" fill="#2A2623"></path><circle cx="196" cy="198" r="3" fill="#FBF6EA" stroke="none"></circle>
<path d="M202 224 V234 M202 234 Q190 244 180 238 M202 234 Q214 244 224 238" fill="none"></path><path d="M104 104 L90 92 M300 96 L316 84 M200 44 V28" fill="none" stroke-width="5"></path>
</g>
</g>
</svg>
<g transform="translate(1310 0) scale(-1 1)"><svg x="0" y="320" width="430" height="430" viewBox="0 0 400 400" preserveAspectRatio="xMidYMid meet" overflow="visible">
<defs><filter id="e9_r" x="-5%" y="-5%" width="110%" height="110%"><feTurbulence type="fractalNoise" baseFrequency="0.03" numOctaves="2" seed="9"></feTurbulence><feDisplacementMap in="SourceGraphic" scale="4" xChannelSelector="R" yChannelSelector="G"></feDisplacementMap></filter></defs>
<g filter="url(#e9_r)" stroke="#1E2240" stroke-width="3" stroke-linejoin="round" stroke-linecap="round">
<path d="M130 170 C118 230 122 280 116 330" fill="none" stroke-width="12"></path><path d="M130 170 C118 230 122 280 116 330" fill="none" stroke="#2A2623" stroke-width="7"></path><circle cx="116" cy="334" r="5" fill="#E0A23A"></circle><path d="M136 170 C122 230 125 280 120 330" fill="none" stroke-width="12"></path><path d="M136 170 C122 230 125 280 120 330" fill="none" stroke="#2A2623" stroke-width="7"></path><circle cx="120" cy="334" r="5" fill="#E0A23A"></circle><path d="M142 170 C126 230 128 280 124 330" fill="none" stroke-width="12"></path><path d="M142 170 C126 230 128 280 124 330" fill="none" stroke="#2A2623" stroke-width="7"></path><circle cx="124" cy="334" r="5" fill="#E0A23A"></circle><path d="M148 170 C130 230 131 280 128 330" fill="none" stroke-width="12"></path><path d="M148 170 C130 230 131 280 128 330" fill="none" stroke="#2A2623" stroke-width="7"></path><circle cx="128" cy="334" r="5" fill="#E0A23A"></circle><path d="M154 170 C134 230 134 280 132 330" fill="none" stroke-width="12"></path><path d="M154 170 C134 230 134 280 132 330" fill="none" stroke="#2A2623" stroke-width="7"></path><circle cx="132" cy="334" r="5" fill="#E0A23A"></circle><path d="M160 170 C138 230 137 280 136 330" fill="none" stroke-width="12"></path><path d="M160 170 C138 230 137 280 136 330" fill="none" stroke="#2A2623" stroke-width="7"></path><circle cx="136" cy="334" r="5" fill="#E0A23A"></circle><path d="M270 170 C284 230 280 280 286 330" fill="none" stroke-width="12"></path><path d="M270 170 C284 230 280 280 286 330" fill="none" stroke="#2A2623" stroke-width="7"></path><circle cx="286" cy="334" r="5" fill="#E0A23A"></circle><path d="M264 170 C280 230 277 280 282 330" fill="none" stroke-width="12"></path><path d="M264 170 C280 230 277 280 282 330" fill="none" stroke="#2A2623" stroke-width="7"></path><circle cx="282" cy="334" r="5" fill="#B8202E"></circle><path d="M258 170 C276 230 274 280 278 330" fill="none" stroke-width="12"></path><path d="M258 170 C276 230 274 280 278 330" fill="none" stroke="#2A2623" stroke-width="7"></path><circle cx="278" cy="334" r="5" fill="#E0A23A"></circle><path d="M252 170 C272 230 271 280 274 330" fill="none" stroke-width="12"></path><path d="M252 170 C272 230 271 280 274 330" fill="none" stroke="#2A2623" stroke-width="7"></path><circle cx="274" cy="334" r="5" fill="#B8202E"></circle><path d="M246 170 C268 230 268 280 270 330" fill="none" stroke-width="12"></path><path d="M246 170 C268 230 268 280 270 330" fill="none" stroke="#2A2623" stroke-width="7"></path><circle cx="270" cy="334" r="5" fill="#E0A23A"></circle><path d="M240 170 C264 230 265 280 266 330" fill="none" stroke-width="12"></path><path d="M240 170 C264 230 265 280 266 330" fill="none" stroke="#2A2623" stroke-width="7"></path><circle cx="266" cy="334" r="5" fill="#B8202E"></circle>
<path d="M42.6 400 C50.2 330 104 302 171.2 293 L228.8 293 C297.9 302 349.8 330 357.4 400 Z" fill="#FBF6EA"></path>
<path d="M297.9 312 C326.7 330 345.9 362 351.7 400 L324.8 400 C321 368 311.4 338 297.9 312 Z" fill="#1E2240" fill-opacity="0.22" stroke="none"></path>
<path d="M140 300 L186 400 M260 300 L214 400" fill="none"></path><path d="M86 400 C90 360 104 334 124 318" fill="none" stroke="#E4D6B6" stroke-width="3"></path>
<path d="M174 234 L172 300 L228 300 L226 234 Z" fill="#8A4B30"></path><path d="M174 244 C190 264 212 264 226 244 L226 264 C210 274 190 274 174 264 Z" fill="#6B3722" stroke="none"></path>
<path d="M152 286 C160 330 240 330 248 286 L240 300 C230 324 170 324 160 300 Z" fill="#B8202E"></path><path d="M168 300 L200 400 L232 300 C224 316 176 316 168 300 Z" fill="#B8202E"></path><path d="M190 330 L186 370 M210 330 L214 370" fill="none" stroke="#FBF6EA" stroke-width="3"></path>
<path d="M143 176 C127 170 125 198 143 204 Z" fill="#8A4B30"></path><path d="M258 172 C273 167 275 195 258 201 Z" fill="#6B3722"></path>
<path d="M140 170 C138 124 168 104 202 104 C238 104 264 128 262 172 C262 216 240 254 200 258 C162 256 142 220 140 170 Z" fill="#8A4B30"></path>
<path d="M238 120 C262 140 266 192 250 228 C240 248 222 256 204 258 C232 238 248 200 245 160 C243 142 240 130 238 120 Z" fill="#6B3722" stroke="none"></path>
<path d="M160 158 Q176 152 194 157" fill="none" stroke="#1E2240" stroke-width="6"></path><path d="M210 155 Q228 149 244 155" fill="none" stroke="#1E2240" stroke-width="6"></path><ellipse cx="178" cy="180" rx="13" ry="8" fill="#FBF6EA"></ellipse><ellipse cx="226" cy="178" rx="14" ry="9" fill="#FBF6EA"></ellipse><circle cx="181" cy="181" r="5" fill="#1E2240" stroke="none"></circle><circle cx="230" cy="179" r="5.5" fill="#1E2240" stroke="none"></circle><path d="M164 177 Q178 168 192 176" fill="none" stroke-width="3.5"></path><path d="M211 175 Q226 166 241 174" fill="none" stroke-width="3.5"></path><path d="M201 186 Q193 206 200 213 Q210 216 215 209" fill="none"></path><path d="M186 226 Q204 222 222 226 Q220 248 204 248 Q188 248 186 226 Z" fill="#5A1820"></path><path d="M194 244 Q204 236 214 244" fill="#D98A6A" stroke="none"></path><path d="M188 227 Q204 224 220 227 L219 231 Q204 229 189 231 Z" fill="#FBF6EA" stroke-width="1.5"></path><path d="M138 166 C130 112 164 90 202 90 C242 90 274 112 266 166 C258 136 232 122 202 122 C172 122 146 136 138 166 Z" fill="#2A2623"></path><path d="M146 124 L196 118 L208 118 L258 124 L256 150 L208 146 L196 146 L148 150 Z" fill="#B87F24"></path><ellipse cx="172" cy="134" rx="22" ry="13" fill="#9ED2D2"></ellipse><ellipse cx="232" cy="134" rx="22" ry="13" fill="#9ED2D2"></ellipse><path d="M160 130 L170 126 M220 130 L230 126" fill="none" stroke="#FBF6EA" stroke-width="3"></path><g transform="rotate(-30 300 360)"><rect x="286" y="300" width="30" height="110" fill="#2A2623"></rect><rect x="280" y="286" width="42" height="22" fill="#6B2FD6"></rect><rect x="292" y="330" width="18" height="10" fill="#E0A23A" stroke-width="2"></rect></g><path d="M272 400 C268 376 280 356 300 354 C312 356 314 370 304 378" fill="#8A4B30"></path>
</g>
</svg></g>
</svg>