<svg xmlns="http://www.w3.org/2000/svg" viewBox="0 0 1280 720" width="1280" height="720" xmlns:c2pa="http://c2pa.org/manifest"><metadata><c2pa:manifest>AAAWgmp1bWIAAAAeanVtZGMycGEAEQAQgAAAqgA4m3EDYzJwYQAAABZcanVtYgAAAEdqdW1kYzJtYQARABCAAACqADibcQN1cm46YzJwYTpmZTYzMWMxMS1lNjA1LTRkNTctOGM4ZC00YmNiZGQ2ZWNhMmMAAAADl2p1bWIAAAApanVtZGMyYXMAEQAQgAAAqgA4m3EDYzJwYS5hc3NlcnRpb25zAAAAALxqdW1iAAAARGp1bWRjYm9yABEAEIAAAKoAOJtxE2MycGEuaW5ncmVkaWVudC52MwAAAAAYYzJzaDWLELz9aGwsjsNmQfTXMi8AAABwY2JvcqNpZGM6Zm9ybWF0bWltYWdlL3N2Zyt4bWxqaW5zdGFuY2VJRHgseG1wOmlpZDo1YjNjN2NkYi04NjU1LTQ0ZTItOGZhYi01YzY2MTc4NWMxOTRscmVsYXRpb25zaGlwaHBhcmVudE9mAAAB4mp1bWIAAABBanVtZGNib3IAEQAQgAAAqgA4m3ETYzJwYS5hY3Rpb25zLnYyAAAAABhjMnNoKcIN6t9Fb1O1VhnI1qK7JwAAAZljYm9yomdhY3Rpb25zgqJmYWN0aW9ua2MycGEub3BlbmVkanBhcmFtZXRlcnOha2luZ3JlZGllbnRzgaJjdXJseC1zZWxmI2p1bWJmPWMycGEuYXNzZXJ0aW9ucy9jMnBhLmluZ3JlZGllbnQudjNkaGFzaFgguMwEMVcZbTKMEFXdnqR+FN/PKfK2W2Kp+B1LVS0480ykZmFjdGlvbngdY29tLmFudGhyb3BpYy5jbGF1ZGUucHJvdmlkZWRqcGFyYW1ldGVyc6F4H2NvbS5hbnRocm9waWMub3JpZ2luLWNvbmZpZGVuY2VndW5rbm93bmtkZXNjcmlwdGlvbnhmQ2xhdWRlIHByb3ZpZGVkIHRoaXMgZmlsZSBhdCB0aGUgcmVxdWVzdCBvZiBhIHVzZXIgYW5kIG1heSBoYXZlIGNyZWF0ZWQgb3IgbW9kaWZpZWQgdGhlIGZpbGUgY29udGVudHMubXNvZnR3YXJlQWdlbnShZG5hbWVmQ2xhdWRlcmFsbEFjdGlvbnNJbmNsdWRlZPUAAADIanVtYgAAAEBqdW1kY2JvcgARABCAAACqADibcRNjMnBhLmhhc2guZGF0YQAAAAAYYzJzaPnwboN4mP+GtWTSe0FQfvYAAACAY2JvcqVjYWxnZnNoYTI1NmNwYWRNAAAAAAAAAAAAAAAAAGRoYXNoWCCIl1coLlyUwXYmDx5EKmUTs+P+8DHXlhnAa/vXQG2RX2RuYW1lbmp1bWJmIG1hbmlmZXN0amV4Y2x1c2lvbnOBomVzdGFydBiYZmxlbmd0aBkeBAAAAj5qdW1iAAAAJ2p1bWRjMmNsABEAEIAAAKoAOJtxA2MycGEuY2xhaW0udjIAAAACD2Nib3KlY2FsZ2ZzaGEyNTZpc2lnbmF0dXJleE1zZWxmI2p1bWJmPS9jMnBhL3VybjpjMnBhOmZlNjMxYzExLWU2MDUtNGQ1Ny04YzhkLTRiY2JkZDZlY2EyYy9jMnBhLnNpZ25hdHVyZWppbnN0YW5jZUlEeCx4bXA6aWlkOjAwNGRmNjVkLWRhMDUtNGZhNi05MzNjLWRkNjA4NmNjZDE1Y3JjcmVhdGVkX2Fzc2VydGlvbnODomN1cmx4LXNlbGYjanVtYmY9YzJwYS5hc3NlcnRpb25zL2MycGEuaW5ncmVkaWVudC52M2RoYXNoWCC4zAQxVxltMowQVd2epH4U388p8rZbYqn4HUtVLTjzTKJjdXJseCpzZWxmI2p1bWJmPWMycGEuYXNzZXJ0aW9ucy9jMnBhLmFjdGlvbnMudjJkaGFzaFgg56fF5BpnD6Y/h+UgJu9LW/6HrU6YQc1irv/ek/kGDDGiY3VybHgpc2VsZiNqdW1iZj1jMnBhLmFzc2VydGlvbnMvYzJwYS5oYXNoLmRhdGFkaGFzaFgg35eCjAIo4OfGc83nBwqRFoiA2Ap5NJkFMC1RKLs/2IF0Y2xhaW1fZ2VuZXJhdG9yX2luZm+jZG5hbWVvQW50aHJvcGljIEZpbGVzZ3ZlcnNpb25lMS4wLjBrc3BlY1ZlcnNpb25lMi40LjAAABA4anVtYgAAAChqdW1kYzJjcwARABCAAACqADibcQNjMnBhLnNpZ25hdHVyZQAAABAIY2JvctKEWQISogEmGCFZAgowggIGMIIBjaADAgECAhRA5aAK7sI50L64g/oGQgU9Z1UTADAKBggqhkjOPQQDAzBJMRcwFQYDVQQKEw5BbnRocm9waWMsIFBCQzEuMCwGA1UEAxMlQW50aHJvcGljIENvbnRlbnQgQ3JlZGVudGlhbHMgUm9vdCBDQTAeFw0yNjA4MDcxODQzNTZaFw0yODA4MDYxOTQzNTZaMEQxFzAVBgNVBAoTDkFudGhyb3BpYywgUEJDMSkwJwYDVQQDEyBBbnRocm9waWMgQ2xhdWRlIENvbnRlbnQgU2lnbmluZzBZMBMGByqGSM49AgEGCCqGSM49AwEHA0IABJh6CmvLUBgFFNU0vUKlOVtE6djd17L5SuwX0LemFisBM3dkd/3cyjxFA3Qo5S46fX0/ihY0VZ7mfb9KF703t5OjWDBWMA4GA1UdDwEB/wQEAwIHgDAVBgNVHSUEDjAMBgorBgEEAYPoXgIBMAwGA1UdEwEB/wQCMAAwHwYDVR0jBBgwFoAUzlHiBIFOZFsj+OPEz5o+nMHXXMIwCgYIKoZIzj0EAwMDZwAwZAIwMXMdFJ4BetLLVY7ORuE9noqbbAZOZn/aArXyTwFAZfKrPzxF2vPoJNf1+UCdg1XGAjBwX1zd9WGqYkqmL5SFqw1QySjr1zJfpJM9+1rdDwSPLMOPOjKuiXjoU/pUUeG9RwmhY3BhZFkNngAAAAAAAAAAAAAAAAAAAAAAAAAAAAAAAAAAAAAAAAAAAAAAAAAAAAAAAAAAAAAAAAAAAAAAAAAAAAAAAAAAAAAAAAAAAAAAAAAAAAAAAAAAAAAAAAAAAAAAAAAAAAAAAAAAAAAAAAAAAAAAAAAAAAAAAAAAAAAAAAAAAAAAAAAAAAAAAAAAAAAAAAAAAAAAAAAAAAAAAAAAAAAAAAAAAAAAAAAAAAAAAAAAAAAAAAAAAAAAAAAAAAAAAAAAAAAAAAAAAAAAAAAAAAAAAAAAAAAAAAAAAAAAAAAAAAAAAAAAAAAAAAAAAAAAAAAAAAAAAAAAAAAAAAAAAAAAAAAAAAAAAAAAAAAAAAAAAAAAAAAAAAAAAAAAAAAAAAAAAAAAAAAAAAAAAAAAAAAAAAAAAAAAAAAAAAAAAAAAAAAAAAAAAAAAAAAAAAAAAAAAAAAAAAAAAAAAAAAAAAAAAAAAAAAAAAAAAAAAAAAAAAAAAAAAAAAAAAAAAAAAAAAAAAAAAAAAAAAAAAAAAAAAAAAAAAAAAAAAAAAAAAAAAAAAAAAAAAAAAAAAAAAAAAAAAAAAAAAAAAAAAAAAAAAAAAAAAAAAAAAAAAAAAAAAAAAAAAAAAAAAAAAAAAAAAAAAAAAAAAAAAAAAAAAAAAAAAAAAAAAAAAAAAAAAAAAAAAAAAAAAAAAAAAAAAAAAAAAAAAAAAAAAAAAAAAAAAAAAAAAAAAAAAAAAAAAAAAAAAAAAAAAAAAAAAAAAAAAAAAAAAAAAAAAAAAAAAAAAAAAAAAAAAAAAAAAAAAAAAAAAAAAAAAAAAAAAAAAAAAAAAAAAAAAAAAAAAAAAAAAAAAAAAAAAAAAAAAAAAAAAAAAAAAAAAAAAAAAAAAAAAAAAAAAAAAAAAAAAAAAAAAAAAAAAAAAAAAAAAAAAAAAAAAAAAAAAAAAAAAAAAAAAAAAAAAAAAAAAAAAAAAAAAAAAAAAAAAAAAAAAAAAAAAAAAAAAAAAAAAAAAAAAAAAAAAAAAAAAAAAAAAAAAAAAAAAAAAAAAAAAAAAAAAAAAAAAAAAAAAAAAAAAAAAAAAAAAAAAAAAAAAAAAAAAAAAAAAAAAAAAAAAAAAAAAAAAAAAAAAAAAAAAAAAAAAAAAAAAAAAAAAAAAAAAAAAAAAAAAAAAAAAAAAAAAAAAAAAAAAAAAAAAAAAAAAAAAAAAAAAAAAAAAAAAAAAAAAAAAAAAAAAAAAAAAAAAAAAAAAAAAAAAAAAAAAAAAAAAAAAAAAAAAAAAAAAAAAAAAAAAAAAAAAAAAAAAAAAAAAAAAAAAAAAAAAAAAAAAAAAAAAAAAAAAAAAAAAAAAAAAAAAAAAAAAAAAAAAAAAAAAAAAAAAAAAAAAAAAAAAAAAAAAAAAAAAAAAAAAAAAAAAAAAAAAAAAAAAAAAAAAAAAAAAAAAAAAAAAAAAAAAAAAAAAAAAAAAAAAAAAAAAAAAAAAAAAAAAAAAAAAAAAAAAAAAAAAAAAAAAAAAAAAAAAAAAAAAAAAAAAAAAAAAAAAAAAAAAAAAAAAAAAAAAAAAAAAAAAAAAAAAAAAAAAAAAAAAAAAAAAAAAAAAAAAAAAAAAAAAAAAAAAAAAAAAAAAAAAAAAAAAAAAAAAAAAAAAAAAAAAAAAAAAAAAAAAAAAAAAAAAAAAAAAAAAAAAAAAAAAAAAAAAAAAAAAAAAAAAAAAAAAAAAAAAAAAAAAAAAAAAAAAAAAAAAAAAAAAAAAAAAAAAAAAAAAAAAAAAAAAAAAAAAAAAAAAAAAAAAAAAAAAAAAAAAAAAAAAAAAAAAAAAAAAAAAAAAAAAAAAAAAAAAAAAAAAAAAAAAAAAAAAAAAAAAAAAAAAAAAAAAAAAAAAAAAAAAAAAAAAAAAAAAAAAAAAAAAAAAAAAAAAAAAAAAAAAAAAAAAAAAAAAAAAAAAAAAAAAAAAAAAAAAAAAAAAAAAAAAAAAAAAAAAAAAAAAAAAAAAAAAAAAAAAAAAAAAAAAAAAAAAAAAAAAAAAAAAAAAAAAAAAAAAAAAAAAAAAAAAAAAAAAAAAAAAAAAAAAAAAAAAAAAAAAAAAAAAAAAAAAAAAAAAAAAAAAAAAAAAAAAAAAAAAAAAAAAAAAAAAAAAAAAAAAAAAAAAAAAAAAAAAAAAAAAAAAAAAAAAAAAAAAAAAAAAAAAAAAAAAAAAAAAAAAAAAAAAAAAAAAAAAAAAAAAAAAAAAAAAAAAAAAAAAAAAAAAAAAAAAAAAAAAAAAAAAAAAAAAAAAAAAAAAAAAAAAAAAAAAAAAAAAAAAAAAAAAAAAAAAAAAAAAAAAAAAAAAAAAAAAAAAAAAAAAAAAAAAAAAAAAAAAAAAAAAAAAAAAAAAAAAAAAAAAAAAAAAAAAAAAAAAAAAAAAAAAAAAAAAAAAAAAAAAAAAAAAAAAAAAAAAAAAAAAAAAAAAAAAAAAAAAAAAAAAAAAAAAAAAAAAAAAAAAAAAAAAAAAAAAAAAAAAAAAAAAAAAAAAAAAAAAAAAAAAAAAAAAAAAAAAAAAAAAAAAAAAAAAAAAAAAAAAAAAAAAAAAAAAAAAAAAAAAAAAAAAAAAAAAAAAAAAAAAAAAAAAAAAAAAAAAAAAAAAAAAAAAAAAAAAAAAAAAAAAAAAAAAAAAAAAAAAAAAAAAAAAAAAAAAAAAAAAAAAAAAAAAAAAAAAAAAAAAAAAAAAAAAAAAAAAAAAAAAAAAAAAAAAAAAAAAAAAAAAAAAAAAAAAAAAAAAAAAAAAAAAAAAAAAAAAAAAAAAAAAAAAAAAAAAAAAAAAAAAAAAAAAAAAAAAAAAAAAAAAAAAAAAAAAAAAAAAAAAAAAAAAAAAAAAAAAAAAAAAAAAAAAAAAAAAAAAAAAAAAAAAAAAAAAAAAAAAAAAAAAAAAAAAAAAAAAAAAAAAAAAAAAAAAAAAAAAAAAAAAAAAAAAAAAAAAAAAAAAAAAAAAAAAAAAAAAAAAAAAAAAAAAAAAAAAAAAAAAAAAAAAAAAAAAAAAAAAAAAAAAAAAAAAAAAAAAAAAAAAAAAAAAAAAAAAAAAAAAAAAAAAAAAAAAAAAAAAAAAAAAAAAAAAAAAAAAAAAAAAAAAAAAAAAAAAAAAAAAAAAAAAAAAAAAAAAAAAAAAAAAAAAAAAAAAAAAAAAAAAAAAAAAAAAAAAAAAAAAAAAAAAAAAAAAAAAAAAAAAAAAAAAAAAAAAAAAAAAAAAAAAAAAAAAAAAAAAAAAAAAAAAAAAAAAAAAAAAAAAAAAAAAAAAAAAAAAAAAAAAAAAAAAAAAAAAAAAAAAAAAAAAAAAAAAAAAAAAAAAAAAAAAAAAAAAAAAAAAAAAAAAAAAAAAAAAAAAAAAAAAAAAAAAAAAAAAAAAAAAAAAAAAAAAAAAAAAAAAAAAAAAAAAAAAAAAAAAAAAAAAAAAAAAAAAAAAAAAAAAAAAAAAAAAAAAAAAAAAAAAAAAAAAAAAAAAAAAAAAAAAAAAAAAAAAAAAAAAAAAAAAAAAAAAAAAAAAAAAAAAAAAAAAAAAAAAAAAAAAAAAAAAAAAAAAAAAAAAAAAAAAAAAAAAAAAAAAAAAAAAAAAAAAAAAAAAAAAAAAAAAAAAAAAAAAAAAAAAAAAAAAAAAAAAAAAAAAAAAAAAAAAAAAAAAAAAAAAAAAAAAAAAAAAAAAAAAAAAAAAAAAAAAAAAAAAAAAAAAAAAAAAAAAAAAAAAAAAAAAAAAAAAAAAAAAAAAAAAAAAAAAAAAAAAAAAAAAAAAAAAAAAAAAAAAAAAAAAAAAAAAAAAAAAAAAAAAAAAAAAAAAAAAAAAAAAAAAAAAAAAAAAAAAAAAAAAAAAAAAAAAAAAAAAAAAAAAAAAAAAAAAAAAAAAAAAAAAAAAAAAAAAAAAAAAAAAAAAAAAAAAAAAAAAAAAAAAAAAAAAAAAAAAAAAAAAAAAAAAAAAAAAAAAAAAAAAAAAAAAAAAAAAAAAAAAAAAAAAAAAAAAAAAAAAAAAAAAAAAAAAAAAAAAAAAAAAAAAAAAAAAAAAAAAAAAAAAAAAAAAAAAAAAAAAAAAAAAAAAAAAAAAAAAAAAAAAAAAAAAAAAAAAAAAAAAAAAAAAAAAAAAAAAAAAAAAAAAAAAAAAAAAAAAAAAAAAAAAAAAAAAAAAAAAAAAAAAAAAAAAAAAAAAAAAAAAAAAAAAAAAAAAAAAAAAAAAAAAAAAAAAAAAAAAAAAAAAAAAAAAAAAAAAAAAAAAAAAAAAAAAAAAAAAAAAAAAAAAAAAAAAAAAAAAAAAAAAAAAAAAAAAAAAAAAAAAAAAAAAAAAAAAAAAAAAAAAAAAAAAAAAAAAAAAAAAAAAAAAAAAAAAAAAAAAAAAAAAAAAAAAAAAAAAAAAAAAAAAAAAAAAAAAAAAAAAAAAAAAAAAAAAAAAAAAAAAAAAAAAAAAAAAAAAAAAAAAAAAAAAAAAAAAAAAAAAAAAAAAAAAAAAAAAAAAAAAAAAAAAAAAAAAAAAAAAAAAAAAAAAAAAAAAAAAAAAAAAAAAAAAAAAAAAAAAAAAAAAAAAAAAAAAAAAAAAAAAAAAAAAAAAAAAAAAAAAAAAAAAAAAAAAAAAAAAAAAAAAAAAAAAAAAAAAAAAAAAAAAAAAAAAAAAAAAAAAAAAAAAAAAAAAAAAAAAAAAAAAAAPZYQL1tNKpu7aANAuWksWoiSVuJAEuBqOvaW5oekvMz8uu2Pttc06Y9cgGLYbGfLdrWLd2iCNxkIHkixBM4er/TdOU=</c2pa:manifest></metadata>
<defs></defs>
<svg x="0" y="0" width="1280" height="720" viewBox="0 0 800 360" preserveAspectRatio="xMidYMid slice" overflow="visible">
<defs><filter id="e0_b" x="-2%" y="-2%" width="104%" height="104%"><feGaussianBlur stdDeviation="1.6"></feGaussianBlur></filter></defs><g filter="url(#e0_b)"><rect width="800" height="360" fill="#EADBB8"></rect><rect width="800" height="30" fill="#E0A23A" opacity="0.6"></rect><rect y="230" width="800" height="130" fill="#D4926E"></rect><path d="M0 230 H800" stroke="#9A3F1F" stroke-width="4"></path>
<rect x="50" y="98" width="360" height="48" fill="#1F8A8A" stroke="#1E2240" stroke-width="3"></rect><g transform="translate(92.24 114) scale(1.6)" fill="none" stroke="#FBF6EA" stroke-width="2.000" stroke-linecap="round" stroke-linejoin="round"><path transform="translate(0 0)" d="M5.5 0 V7 A2.75 2.75 0 0 1 0 7"></path><path transform="translate(8.375 0)" d="M0 10 L4 0 L8 10 M1.6 6.6 H6.4"></path><path transform="translate(19.25 0)" d="M0 10 V0 L4.5 7 L9 0 V10"></path><path transform="translate(31.125 0)" d="M0 0 V10 H4.5 A2.6 2.6 0 0 0 4.5 4.8 H0 M0 0 H4 A2.4 2.4 0 0 1 4 4.8"></path><path transform="translate(41.1 0)" d="M4.5 0 A4.5 5 0 1 0 4.5 10 A4.5 5 0 1 0 4.5 0"></path><path transform="translate(59.7 0)" d="M0 0 V10"></path><path transform="translate(62.575 0)" d="M0 10 V0 L7 10 V0"></path><path transform="translate(72.45 0)" d="M0 0 H7 M3.5 0 V10"></path><path transform="translate(82.325 0)" d="M6 0 H0 V10 H6 M0 5 H4.8"></path><path transform="translate(91.2 0)" d="M0 10 V0 H3.5 A2.7 2.7 0 0 1 3.5 5.4 H0 M3 5.4 L6.5 10"></path><path transform="translate(100.575 0)" d="M0 10 V0 L7 10 V0"></path><path transform="translate(110.45 0)" d="M0 10 L4 0 L8 10 M1.6 6.6 H6.4"></path><path transform="translate(121.325 0)" d="M0 0 H7 M3.5 0 V10"></path><path transform="translate(131.2 0)" d="M0 0 V10"></path><path transform="translate(134.075 0)" d="M4.5 0 A4.5 5 0 1 0 4.5 10 A4.5 5 0 1 0 4.5 0"></path><path transform="translate(145.95 0)" d="M0 10 V0 L7 10 V0"></path><path transform="translate(155.825 0)" d="M0 10 L4 0 L8 10 M1.6 6.6 H6.4"></path><path transform="translate(166.7 0)" d="M0 0 V10 H5.5"></path></g>
<rect x="470" y="92" width="250" height="118" fill="#2A2623" stroke="#1E2240" stroke-width="3"></rect><g stroke="#E0A23A" stroke-width="6" stroke-linecap="round"><path d="M490 116 H560 M580 116 H700 M490 140 H540 M580 140 H680 M490 164 H570 M580 164 H700 M490 188 H530 M580 188 H660"></path></g>
<g fill="#1F8A8A" opacity="0.5"><path d="M160 230 C160 180 200 170 206 230 Z"></path><circle cx="183" cy="168" r="16"></circle><path d="M620 230 C620 184 660 176 668 230 Z"></path><circle cx="644" cy="172" r="15"></circle></g><g fill="#C4552D" opacity="0.5"><path d="M300 230 C300 176 350 168 354 230 Z"></path><circle cx="327" cy="164" r="17"></circle></g>
<path d="M60 300 V236 M260 300 V236 M460 300 V236 M660 300 V236" stroke="#1E2240" stroke-width="8"></path><path d="M60 250 C160 262 160 262 260 250 C360 262 360 262 460 250 C560 262 560 262 660 250" stroke="#1F8A8A" stroke-width="8" fill="none"></path></g>
</svg>
<g stroke="#1E2240" stroke-width="3" stroke-linejoin="round"><path d="M-10 560 H1290 V730 H-10 Z" fill="#C4552D"></path><path d="M-10 560 H1290 V578 H-10 Z" fill="#E48A63"></path></g>
<svg x="-20" y="300" width="440" height="440" viewBox="0 0 400 400" preserveAspectRatio="xMidYMid meet" overflow="visible">
<defs><filter id="e1_r" x="-5%" y="-5%" width="110%" height="110%"><feTurbulence type="fractalNoise" baseFrequency="0.03" numOctaves="2" seed="9"></feTurbulence><feDisplacementMap in="SourceGraphic" scale="4" xChannelSelector="R" yChannelSelector="G"></feDisplacementMap></filter></defs>
<g filter="url(#e1_r)" stroke="#1E2240" stroke-width="3" stroke-linejoin="round" stroke-linecap="round">

<path d="M22.9 400 C31.5 330 92 302 167.6 293 L232.4 293 C310.2 302 368.5 330 377.1 400 Z" fill="#5FA8A8"></path>
<path d="M310.2 312 C342.6 330 364.2 362 370.6 400 L340.4 400 C336.1 368 325.3 338 310.2 312 Z" fill="#1E2240" fill-opacity="0.22" stroke="none"></path>
<path d="M88 318 L150 302 L154 316 L94 334 Z M312 318 L250 302 L246 316 L306 334 Z" fill="#C9A55E"></path><circle cx="110" cy="356" r="9" fill="#B8202E"></circle><circle cx="110" cy="356" r="3.6" fill="#FBF6EA" stroke="none"></circle><circle cx="134" cy="346" r="9" fill="#E0A23A"></circle><circle cx="134" cy="346" r="3.6" fill="#FBF6EA" stroke="none"></circle><circle cx="112" cy="380" r="9" fill="#1F8A8A"></circle><circle cx="112" cy="380" r="3.6" fill="#FBF6EA" stroke="none"></circle><circle cx="138" cy="372" r="8" fill="#2E7D4F"></circle><circle cx="138" cy="372" r="3.2" fill="#FBF6EA" stroke="none"></circle><circle cx="290" cy="350" r="11" fill="#E0A23A"></circle><circle cx="290" cy="350" r="4.4" fill="#FBF6EA" stroke="none"></circle>
<path d="M174 234 L172 300 L228 300 L226 234 Z" fill="#7A4430"></path><path d="M174 244 C190 264 212 264 226 244 L226 264 C210 274 190 274 174 264 Z" fill="#5E3322" stroke="none"></path>
<path d="M166 290 L200 336 L234 290 Z" fill="#FBF6EA"></path><path d="M162 290 L198 346 L176 350 L150 312 Z M238 290 L202 346 L224 350 L250 312 Z" fill="#4E9494"></path>
<path d="M143 176 C127 170 125 198 143 204 Z" fill="#7A4430"></path><path d="M258 172 C273 167 275 195 258 201 Z" fill="#5E3322"></path>
<path d="M140 170 C138 124 168 104 202 104 C238 104 264 128 262 172 C262 216 240 254 200 258 C162 256 142 220 140 170 Z" fill="#7A4430"></path>
<path d="M238 120 C262 140 266 192 250 228 C240 248 222 256 204 258 C232 238 248 200 245 160 C243 142 240 130 238 120 Z" fill="#5E3322" stroke="none"></path>
<path d="M160 152 Q176 144 194 150" fill="none" stroke="#1E2240" stroke-width="6"></path><path d="M210 148 Q228 140 246 148" fill="none" stroke="#1E2240" stroke-width="6"></path><path d="M165 183 Q178 171 191 183" fill="none" stroke-width="4"></path><path d="M212 181 Q226 168 240 181" fill="none" stroke-width="4"></path><path d="M201 186 Q193 206 200 213 Q210 216 215 209" fill="none"></path><path d="M184 212 Q176 224 181 236 M222 210 Q231 222 226 234" fill="none" stroke-width="2.5" opacity="0.7"></path><path d="M150 188 l-9 -3 M253 186 l9 -3" fill="none" stroke-width="2.5"></path><path d="M178 224 Q204 254 232 222 Q204 232 178 224 Z" fill="#5A1820"></path><path d="M184 226 Q204 234 226 224 L224 230 Q204 238 186 232 Z" fill="#FBF6EA" stroke-width="2"></path><circle cx="164" cy="210" r="9" fill="#C4552D" stroke="none" opacity="0.45"></circle><circle cx="242" cy="206" r="8" fill="#C4552D" stroke="none" opacity="0.45"></circle><path d="M138 160 C130 110 166 88 204 88 C244 88 274 112 266 162 C258 134 232 122 202 122 C170 122 146 134 138 160 Z" fill="#8C8078"></path><g fill="#D8D2C8" stroke="none"><circle cx="160" cy="116" r="4"></circle><circle cx="190" cy="102" r="4"></circle><circle cx="224" cy="104" r="4"></circle><circle cx="250" cy="122" r="4"></circle><circle cx="206" cy="114" r="3"></circle><circle cx="176" cy="118" r="3"></circle></g><path d="M162 196 H194 Q192 210 178 210 Q164 210 162 196 Z" fill="#FBF6EA" fill-opacity="0.35" stroke-width="3.5"></path><path d="M208 194 H242 Q240 208 225 208 Q210 208 208 194 Z" fill="#FBF6EA" fill-opacity="0.35" stroke-width="3.5"></path><path d="M194 198 Q201 194 208 197" fill="none" stroke-width="3"></path><path d="M162 198 C146 230 146 262 158 292 M242 196 C258 228 260 260 250 290" fill="none" stroke="#E0A23A" stroke-width="2.5" stroke-dasharray="3 3"></path>
<path d="M300 400 L304 322 C304 312 346 312 346 322 L350 400 Z" fill="#B8202E"></path><path d="M302 322 C302 308 348 308 348 322 L348 334 C348 344 302 344 302 334 Z" fill="#FBF6EA"></path><path d="M306 356 H346" stroke="#FBF6EA" stroke-width="5"></path>
</g>
</svg>
<g transform="translate(1280 0) scale(-1 1)"><svg x="0" y="280" width="460" height="460" viewBox="0 0 400 400" preserveAspectRatio="xMidYMid meet" overflow="visible">
<defs><filter id="e2_r" x="-3%" y="-3%" width="106%" height="106%"><feTurbulence type="fractalNoise" baseFrequency="0.03" numOctaves="2" seed="13"></feTurbulence><feDisplacementMap in="SourceGraphic" scale="4" xChannelSelector="R" yChannelSelector="G"></feDisplacementMap></filter></defs>
<g filter="url(#e2_r)" stroke="#1E2240" stroke-width="3" stroke-linejoin="round" stroke-linecap="round">
<path d="M36 400 C44 330 100 302 170 293 L230 293 C302 302 356 330 364 400 Z" fill="#6E6A3C"></path>
<path d="M302 312 C332 330 352 362 358 400 L330 400 C326 368 316 338 302 312 Z" fill="#1E2240" fill-opacity="0.22" stroke="none"></path>
<path d="M88 318 L150 302 L154 316 L94 334 Z M312 318 L250 302 L246 316 L306 334 Z" fill="#56532E"></path>
<path d="M104 344 H156 V392 H104 Z M244 344 H296 V392 H244 Z" fill="#8A8550"></path><path d="M100 340 H160 L156 358 H104 Z M240 340 H300 L296 358 H244 Z" fill="#6E6A3C"></path><circle cx="130" cy="352" r="3.5" fill="#56532E"></circle><circle cx="270" cy="352" r="3.5" fill="#56532E"></circle>
<path d="M174 234 L172 300 L228 300 L226 234 Z" fill="#6A3A24"></path><path d="M174 244 C190 264 212 264 226 244 L226 264 C210 274 190 274 174 264 Z" fill="#4F2A1A" stroke="none"></path>
<path d="M168 290 L200 338 L232 290 Z" fill="#6A3A24"></path><path d="M162 290 L198 344 L172 352 L148 314 Z M238 290 L202 344 L228 352 L252 314 Z" fill="#56532E"></path><path d="M200 344 V400" fill="none" stroke-width="2.5"></path><circle cx="200" cy="364" r="3" fill="#56532E"></circle><circle cx="200" cy="388" r="3" fill="#56532E"></circle>
<path d="M143 176 C127 170 125 198 143 204 Z" fill="#6A3A24"></path><path d="M258 172 C273 167 275 195 258 201 Z" fill="#4F2A1A"></path>
<path d="M140 170 C138 124 168 104 202 104 C238 104 264 128 262 172 C262 216 240 254 200 258 C162 256 142 220 140 170 Z" fill="#6A3A24"></path>
<path d="M238 120 C262 140 266 192 250 228 C240 248 222 256 204 258 C232 238 248 200 245 160 C243 142 240 130 238 120 Z" fill="#4F2A1A" stroke="none"></path>
<path d="M142 168 C140 150 146 140 152 136 L250 136 C256 142 262 152 262 168 L256 168 C254 154 248 146 240 144 L164 144 C156 146 150 154 148 168 Z" fill="#2A2623"></path>
<path d="M160 158 Q176 152 194 157" fill="none" stroke-width="6"></path><path d="M210 155 Q228 149 244 155" fill="none" stroke-width="6"></path><ellipse cx="178" cy="180" rx="13" ry="8" fill="#FBF6EA"></ellipse><ellipse cx="226" cy="178" rx="14" ry="9" fill="#FBF6EA"></ellipse><circle cx="174" cy="181" r="5" fill="#1E2240" stroke="none"></circle><circle cx="223" cy="179" r="5.5" fill="#1E2240" stroke="none"></circle><path d="M164 177 Q178 168 192 176" fill="none" stroke-width="3.5"></path><path d="M211 175 Q226 166 241 174" fill="none" stroke-width="3.5"></path><path d="M201 186 Q193 206 200 213 Q210 216 215 209" fill="none"></path><path d="M186 226 Q204 222 222 226 Q220 248 204 248 Q188 248 186 226 Z" fill="#5A1820"></path><path d="M194 244 Q204 236 214 244" fill="#D98A6A" stroke="none"></path><path d="M188 227 Q204 224 220 227 L219 231 Q204 229 189 231 Z" fill="#FBF6EA" stroke-width="1.5"></path>
<path d="M184 252 C190 264 214 264 220 252 C216 270 188 270 184 252 Z" fill="#2A2623"></path>
<path d="M144 132 C140 92 168 70 204 70 C242 70 268 92 262 132 Z" fill="#6E6A3C"></path><path d="M178 72 C192 84 214 84 228 72" fill="none" stroke="#56532E" stroke-width="3"></path>
<path d="M144 116 C176 108 232 108 262 116 L262 132 C232 124 176 124 144 132 Z" fill="#56532E"></path>
<path d="M96 140 C120 118 290 116 312 140 C300 156 108 158 96 140 Z" fill="#6E6A3C"></path><path d="M110 144 C150 150 260 150 298 144" fill="none" stroke="#56532E" stroke-width="3"></path>
<path d="M262 132 C284 138 300 142 312 140 L304 160 C292 150 278 146 262 146 Z" fill="#56532E" stroke="none" opacity="0.6"></path>
<g transform="rotate(-14 330 400)"><rect x="268" y="322" width="120" height="96" fill="#F3E6C8"></rect><rect x="268" y="400" width="120" height="18" fill="#DCC89E"></rect>
<g fill="#1E2240" stroke="none"><circle cx="290" cy="348" r="4"></circle><circle cx="290" cy="366" r="4"></circle><circle cx="309" cy="348" r="4"></circle><circle cx="309" cy="366" r="4"></circle><circle cx="328" cy="348" r="4"></circle><circle cx="328" cy="366" r="4"></circle><circle cx="347" cy="348" r="4"></circle><circle cx="347" cy="366" r="4"></circle><circle cx="366" cy="348" r="4"></circle><circle cx="366" cy="366" r="4"></circle></g>
<path d="M300 322 V304 H356 V322" fill="none" stroke-width="10"></path><path d="M300 322 V304 H356 V322" fill="none" stroke="#2A2623" stroke-width="5"></path>
<rect x="320" y="318" width="16" height="10" fill="#E0A23A" stroke-width="2"></rect></g>
<path d="M262 400 C258 360 282 330 312 326 C326 328 330 342 318 352 C300 362 292 380 294 400 Z" fill="#6A3A24"></path>
</g>
</svg></g>
<svg x="440" y="400" width="400" height="200" viewBox="0 0 560 280" preserveAspectRatio="xMidYMid meet" overflow="visible">
<defs><filter id="e3_r" x="-2%" y="-2%" width="104%" height="104%"><feTurbulence type="fractalNoise" baseFrequency="0.03" numOctaves="2" seed="3"></feTurbulence><feDisplacementMap in="SourceGraphic" scale="4" xChannelSelector="R" yChannelSelector="G"></feDisplacementMap></filter></defs>
<g filter="url(#e3_r)" stroke="#1E2240" stroke-width="3" stroke-linejoin="round" stroke-linecap="round">
<rect x="26" y="26" width="508" height="228" fill="#4A3F37"></rect>
<path d="M90 26 V254 M160 26 V254 M230 26 V254 M300 26 V254 M370 26 V254 M440 26 V254" stroke="#2A2623" fill="none"></path>
<path d="M26 60 C140 70 300 50 534 64 L534 26 H26 Z" fill="#2A2623" stroke="none" opacity="0.6"></path>
<path d="M26 254 C80 224 140 234 200 228 C280 220 360 234 440 226 C490 222 520 230 534 236 V254 Z" fill="#E0A23A"></path>
<path d="M60 240 L84 232 M110 246 L130 234 M170 238 L196 244 M240 232 L262 242 M300 240 L330 230 M380 236 L404 244 M60 250 L90 246 M200 250 L230 244 M320 250 L350 246 M500 240 L520 246" stroke="#B87F24" fill="none"></path>
<path d="M436 232 C436 250 504 250 504 232 Z" fill="#1F8A8A"></path>
<ellipse cx="470" cy="232" rx="34" ry="8" fill="#166868"></ellipse>
<path d="M4 4 H556 V276 H4 Z M26 26 V254 H534 V26 Z" fill="#C4552D" fill-rule="evenodd"></path>
<path d="M26 254 H534 L556 276 H4 Z" fill="#9A3F1F"></path>
<path d="M20 12 C120 16 300 10 540 14 M24 266 C200 270 360 262 540 268" stroke="#9A3F1F" fill="none" stroke-width="2"></path>
<rect x="4" y="4" width="36" height="36" fill="#2A2623"></rect><rect x="520" y="4" width="36" height="36" fill="#2A2623"></rect>
<rect x="4" y="240" width="36" height="36" fill="#2A2623"></rect><rect x="520" y="240" width="36" height="36" fill="#2A2623"></rect>
</g>
<g fill="#DCC89E"><circle cx="22" cy="22" r="3"></circle><circle cx="538" cy="22" r="3"></circle><circle cx="22" cy="258" r="3"></circle><circle cx="538" cy="258" r="3"></circle></g>
</svg>
<svg x="480" y="330" width="300" height="300" viewBox="0 0 512 512" preserveAspectRatio="xMidYMid meet" overflow="visible">
<defs><filter id="e4_r" x="-5%" y="-5%" width="110%" height="110%"><feTurbulence type="fractalNoise" baseFrequency="0.03" numOctaves="2" seed="34"></feTurbulence><feDisplacementMap in="SourceGraphic" scale="4" xChannelSelector="R" yChannelSelector="G"></feDisplacementMap></filter></defs>
<ellipse cx="290" cy="462" rx="160" ry="10" fill="#1E2240" opacity="0.18"></ellipse>
<g filter="url(#e4_r)" stroke="#1E2240" stroke-width="3" stroke-linejoin="round" stroke-linecap="round">
<path d="M430 420 L452 428 L430 432 Z" fill="#DCC89E"></path>
<path d="M380 418 L386 456 L414 456 L410 416 Z" fill="#C4AE80"></path><path d="M168 420 L158 456 L190 456 L198 420 Z" fill="#DCC89E"></path><path d="M160 456 l-6 3 M172 456 l-4 4 M184 456 l-2 4" fill="none" stroke-width="3"></path>
<path d="M156 404 C134 390 102 390 86 404 C80 414 90 426 112 426 L162 426 Z" fill="#DCC89E"></path><path d="M106 418 Q116 422 128 418" fill="none"></path>
<path d="M107 403.05 Q114 395 121 403.05" fill="none" stroke-width="4"></path>

<path d="M150 422 C156 362 236 340 316 342 C390 344 432 380 436 422 Z" fill="#8A5E3A"></path>
<path d="M200 422 L214 372 M252 422 L262 350 M306 422 L310 344 M358 422 L352 350 M406 422 L392 372 M180 392 C240 380 360 380 420 394" fill="none" stroke-width="2"></path>
<path d="M214 372 L230 410 M214 372 L196 404 M262 350 L282 398 M262 350 L244 400 M310 344 L330 396 M310 344 L292 398 M352 350 L372 400 M352 350 L334 400 M392 372 L410 404 M392 372 L378 406" fill="none" stroke="#E0A23A" stroke-width="3"></path>
<path d="M148 422 H440 V430 H148 Z" fill="#6B4A2A"></path>
<path d="M168 424 C176 432 196 432 200 424" fill="none" stroke="#1F8A8A" stroke-width="6"></path><path d="M184 430 L184 442" fill="none" stroke-width="2.5"></path><path d="M171 442 H197 V462 L184 472 L171 462 Z" fill="#1F8A8A"></path><circle cx="184" cy="450" r="3.5" fill="#F3E6C8"></circle>
</g>
</svg>
</svg>